<svg width="49" height="48" viewBox="0 0 49 48" fill="none" xmlns="http://www.w3.org/2000/svg">
<rect x="0.353516" width="48" height="48" rx="24" fill="#73A4E0"/>
<path d="M33.5348 34.9175H15.9539C15.6842 34.9191 15.4233 34.8207 15.2218 34.6414C15.0203 34.462 14.8923 34.2144 14.8626 33.9462L14.0005 21.0088C13.996 20.8643 14.0211 20.7203 14.0743 20.5859C14.1276 20.4514 14.2078 20.3293 14.31 20.227C14.4123 20.1248 14.5344 20.0446 14.6689 19.9913C14.8033 19.9381 14.9473 19.913 15.0918 19.9175H34.577C34.8665 19.9175 35.144 20.0325 35.3487 20.2371C35.5534 20.4418 35.6683 20.7194 35.6683 21.0088L34.6261 33.9571C34.594 34.2233 34.4649 34.4683 34.2637 34.6454C34.0624 34.8226 33.803 34.9194 33.5348 34.9175V34.9175Z" stroke="white" stroke-width="2" stroke-linecap="round" stroke-linejoin="round"/>
<path d="M19.375 23.4587V17.4565C19.375 16.0094 19.9499 14.6215 20.9732 13.5982C21.9965 12.5749 23.3844 12 24.8315 12C26.2787 12 27.6666 12.5749 28.6899 13.5982C29.7132 14.6215 30.288 16.0094 30.288 17.4565V23.4587" stroke="white" stroke-width="2" stroke-linecap="round" stroke-linejoin="round"/>
</svg>
