<svg width="27" height="26" viewBox="0 0 27 26" fill="none" xmlns="http://www.w3.org/2000/svg">
<path d="M22.819 17.579H9.11499L6.20312 5.2197H25.2365L22.819 17.579Z" stroke="white" stroke-width="2" stroke-linecap="round" stroke-linejoin="round"/>
<path d="M12.1341 22.4831C12.5437 22.4831 12.8757 22.1511 12.8757 21.7416C12.8757 21.332 12.5437 21 12.1341 21C11.7246 21 11.3926 21.332 11.3926 21.7416C11.3926 22.1511 11.7246 22.4831 12.1341 22.4831Z" stroke="white" stroke-width="2" stroke-linecap="round" stroke-linejoin="round"/>
<path d="M19.5502 22.4831C19.9597 22.4831 20.2917 22.1511 20.2917 21.7416C20.2917 21.332 19.9597 21 19.5502 21C19.1406 21 18.8086 21.332 18.8086 21.7416C18.8086 22.1511 19.1406 22.4831 19.5502 22.4831Z" stroke="white" stroke-width="2" stroke-linecap="round" stroke-linejoin="round"/>
<path d="M23.7523 11.3994H16.8311" stroke="white" stroke-width="2" stroke-linecap="round" stroke-linejoin="round"/>
<path d="M6.23283 5.30872L4.96228 4.04312C4.35001 3.42926 3.52963 3.06758 2.66345 3.02966L2.00098 3" stroke="white" stroke-width="2" stroke-linecap="round" stroke-linejoin="round"/>
</svg>
