<svg
    width="129"
    height="25"
    viewBox="0 0 129 25"
    fill="none"
    xmlns="http://www.w3.org/2000/svg"
  >
    <path
      d="M38 0H1C0.447715 0 0 0.447716 0 1V24C0 24.5523 0.447715 25 1 25H38C38.5523 25 39 24.5523 39 24V1C39 0.447715 38.5523 0 38 0Z"
      fill="#0E4595"
    />
    <path
      d="M15.8446 17.4368C15.2251 17.4368 14.7547 16.8794 14.8588 16.2688L16.186 8.48084C16.2679 8.0003 16.6843 7.64883 17.1718 7.64883H17.8108C18.4303 7.64883 18.9007 8.20629 18.7966 8.81694L17.4684 16.6049C17.3865 17.0854 16.97 17.4368 16.4826 17.4368H15.8446ZM26.8264 8.67398C26.907 8.20139 26.6416 7.73136 26.1741 7.6251C25.7258 7.52321 25.186 7.44873 24.5741 7.44873C21.9379 7.44873 20.0809 8.77623 20.0651 10.6789C20.0502 12.0854 21.3908 12.87 22.4027 13.3382C23.4413 13.8179 23.7903 14.1239 23.7854 14.5523C23.7789 15.2084 22.9561 15.5081 22.1893 15.5081C21.1215 15.5081 20.5542 15.3598 19.678 14.9943C19.5041 14.9157 19.3028 15.0226 19.2706 15.2108L19.0914 16.2595C19.014 16.7122 19.256 17.1612 19.7012 17.274C20.322 17.4313 21.1166 17.5438 21.9316 17.5521C24.7361 17.5521 26.5566 16.2398 26.5774 14.208C26.5874 13.0946 25.8766 12.2472 24.3374 11.5486C23.4049 11.0959 22.8338 10.7937 22.8398 10.3352C22.8398 9.92838 23.3232 9.49328 24.3677 9.49328C25.2401 9.47978 25.8722 9.67003 26.3646 9.86828C26.4846 9.92504 26.6257 9.85155 26.6481 9.72063L26.8264 8.67398ZM33.8307 7.64865C33.8307 7.64867 33.8307 7.64868 33.8307 7.64868H31.7691C31.1305 7.64868 30.6525 7.82303 30.3721 8.46038L27.0301 16.0263C26.7381 16.6874 27.2221 17.4304 27.9448 17.4304H28.5215C28.9368 17.4304 29.3088 17.1737 29.4567 16.7855C29.4805 16.7231 29.5047 16.6596 29.5286 16.5967C29.6753 16.2121 30.0431 15.9597 30.4548 15.9602C31.0322 15.961 31.8466 15.9621 32.445 15.9629C32.8816 15.9635 33.2868 16.3919 33.3805 16.8183C33.4753 17.2497 33.8294 17.4304 34.2711 17.4304H34.7927C35.4075 17.4304 35.8645 16.8615 35.732 16.2611L33.8308 7.64864C33.8308 7.64861 33.8307 7.64862 33.8307 7.64865ZM30.8931 13.9692C30.7329 13.9692 30.6225 13.8087 30.6806 13.6594C30.8581 13.2037 31.1367 12.486 31.345 11.9491C31.3747 11.8727 31.8415 10.6578 31.8707 10.5811C31.8947 10.5182 32.0111 10.4605 32.0251 10.5264L32.1568 11.1428C32.1568 11.1428 32.3764 12.147 32.5577 12.9768C32.6692 13.4869 32.2808 13.9692 31.7586 13.9692H30.8931ZM12.3948 7.64868L10.2874 13.0341C10.1387 13.4142 9.5865 13.3669 9.50447 12.9672C9.20583 12.0068 8.51914 10.9973 7.64135 10.1647C7.01196 9.56777 6.18276 10.1989 6.41589 11.0344L7.9936 16.6892C8.11432 17.1218 8.50874 17.4209 8.95795 17.4204L10.3629 17.4188C10.7621 17.4184 11.1228 17.1805 11.2805 16.8138L14.6211 9.04356C14.9049 8.38356 14.4208 7.64858 13.7024 7.64858H12.3948"
      fill="white"
    />
    <path
      d="M7.34587 7.64766H3.14218C3.08541 7.64766 3.03696 7.68869 3.02759 7.74468C3.01755 7.80477 3.05617 7.86249 3.11526 7.87732C4.4915 8.22286 5.67323 8.76391 6.64889 9.44694C7.0364 9.71823 8.65159 8.93694 8.55527 8.47381C8.39377 7.85406 7.92542 7.66911 7.34597 7.64746"
      fill="#F2AE14"
    />
    <path
      d="M83 0H46C45.4477 0 45 0.447716 45 1V24C45 24.5523 45.4477 25 46 25H83C83.5523 25 84 24.5523 84 24V1C84 0.447715 83.5523 0 83 0Z"
      fill="#16366F"
    />
    <path
      d="M67.4505 12.4999C67.4505 17.4571 63.432 21.4749 58.475 21.4749C53.518 21.4749 49.5 17.4569 49.5 12.4999C49.5 7.54325 53.5181 3.5249 58.475 3.5249C63.4319 3.5249 67.4505 7.5434 67.4505 12.4999Z"
      fill="#D9222A"
    />
    <path
      d="M70.5243 3.5249C68.2053 3.5249 66.0922 4.4047 64.4993 5.8482C64.1115 6.2001 64.3833 6.798 64.907 6.798H65.1634C65.3172 6.798 65.4637 6.86634 65.5582 6.98771C65.8066 7.30668 65.5657 7.74865 65.1615 7.74865H63.191C63.0155 7.74865 62.8514 7.83852 62.7631 7.9902C62.5756 8.31234 62.8196 8.69905 63.1923 8.69905H66.2859C66.4821 8.69905 66.6617 8.81215 66.7384 8.99273C66.8734 9.31055 66.6304 9.64925 66.2851 9.64925H62.3742C62.1577 9.64925 61.964 9.7872 61.9037 9.99508C61.8142 10.3032 62.0538 10.5997 62.3747 10.5997H66.4404C66.9115 10.5997 67.3248 10.9281 67.3824 11.3958C67.4275 11.7619 67.4501 12.1307 67.45 12.5001C67.45 13.2448 67.3592 13.9685 67.1881 14.6603C67.0849 15.0776 66.6976 15.3511 66.2677 15.3511H62.7141C62.3686 15.3511 62.1254 15.6898 62.2604 16.0078C62.3371 16.1885 62.5169 16.3016 62.7133 16.3016H65.8066C66.1794 16.3016 66.4233 16.6884 66.2358 17.0106C66.1474 17.1623 65.9833 17.2523 65.8078 17.2523H63.8375C63.4335 17.2523 63.1931 17.6943 63.4415 18.013C63.5359 18.1342 63.682 18.2021 63.8356 18.2021H64.5417C64.8865 18.2021 65.0693 18.5979 64.8257 18.8419C64.6552 19.0127 64.654 19.2938 64.8407 19.4467C66.3885 20.7146 68.3673 21.4754 70.5244 21.4754C75.4813 21.4753 79.4999 17.4573 79.4999 12.5004C79.4999 7.54385 75.4814 3.52535 70.5244 3.52535"
      fill="#EE9F2D"
    />
    <path
      d="M78.3033 17.5033C78.3033 17.3433 78.4329 17.2133 78.5931 17.2133C78.7533 17.2133 78.8829 17.3433 78.8829 17.5033C78.8829 17.6633 78.7533 17.7933 78.5931 17.7933C78.433 17.7932 78.3032 17.6634 78.3033 17.5033ZM78.5931 17.7237C78.7148 17.7237 78.8134 17.625 78.8135 17.5033C78.8135 17.3817 78.7149 17.2831 78.5933 17.2831H78.5931C78.4716 17.2829 78.3731 17.3813 78.3729 17.5027V17.5034C78.3727 17.6249 78.4711 17.7235 78.5926 17.7238C78.5927 17.7238 78.5929 17.7237 78.5931 17.7237ZM78.5539 17.601C78.5539 17.6174 78.5406 17.6307 78.5242 17.6307C78.5078 17.6307 78.4945 17.6174 78.4945 17.601V17.4835C78.4945 17.4241 78.5426 17.376 78.602 17.376C78.6245 17.376 78.6474 17.376 78.6672 17.3887C78.6879 17.4026 78.6995 17.4272 78.6995 17.4526C78.6995 17.4643 78.6967 17.4757 78.6915 17.4858C78.679 17.5099 78.664 17.539 78.6745 17.5641L78.6849 17.5891C78.6931 17.6089 78.6786 17.6307 78.6571 17.6307C78.6447 17.6307 78.6335 17.6231 78.629 17.6115L78.6038 17.5464C78.6 17.5365 78.5904 17.5299 78.5798 17.5299C78.5655 17.5299 78.554 17.5415 78.554 17.5557L78.5539 17.601ZM78.5539 17.4537C78.5539 17.4717 78.5685 17.4862 78.5864 17.4862H78.5868C78.5991 17.4862 78.612 17.4872 78.6231 17.4812C78.6329 17.475 78.6379 17.4633 78.6379 17.452C78.6379 17.4423 78.6319 17.431 78.6235 17.4262C78.6131 17.4197 78.5967 17.4212 78.5856 17.4212C78.5681 17.4212 78.5539 17.4353 78.5539 17.4528V17.4537ZM56.3568 13.7C56.3784 13.5786 56.2848 13.468 56.1614 13.468C55.6092 13.468 55.3296 13.6575 55.3296 14.0314C55.3296 14.262 55.4661 14.4087 55.6789 14.4087C56.0209 14.4087 56.2806 14.1281 56.3568 13.7ZM57.1347 14.7602C57.1049 14.9709 56.9243 15.1329 56.7114 15.1329H56.3785C56.325 15.1329 56.2823 15.0881 56.2849 15.0346C56.2893 14.9442 56.167 14.8938 56.0953 14.9491C55.8786 15.1162 55.6109 15.1966 55.2775 15.1966C54.7494 15.1966 54.3873 14.7841 54.3873 14.1851C54.3873 13.2839 55.0171 12.7581 56.0981 12.7581C56.1447 12.7581 56.1969 12.7599 56.2526 12.7634C56.3913 12.7719 56.5333 12.6855 56.5333 12.5466C56.5333 12.3012 56.3635 12.2097 55.9083 12.2097C55.7517 12.2079 55.6042 12.2195 55.4709 12.2379C55.1957 12.2757 54.9442 11.963 54.9885 11.6888C55.0113 11.5483 55.0989 11.517 55.2367 11.481C55.6029 11.3852 55.8765 11.3476 56.1783 11.3476C57.015 11.3476 57.4581 11.7232 57.4573 12.4332C57.4589 12.6235 57.4275 12.8582 57.3783 13.1668C57.3159 13.5627 57.2007 14.2923 57.1347 14.7602ZM54.0464 14.7293C54.0078 14.9621 53.8065 15.1329 53.5705 15.1329H53.3509C53.1695 15.1329 53.031 14.9706 53.0596 14.7914C53.1161 14.4372 52.6108 14.3081 52.4904 14.646L52.3932 14.9191C52.3475 15.0473 52.2262 15.1329 52.0901 15.1329H51.9503C51.785 15.1329 51.65 15.001 51.6461 14.8357C51.6374 14.467 51.1031 14.4286 51.0418 14.7923L51.0282 14.8727C51.0029 15.0229 50.8728 15.1329 50.7205 15.1329H50.6039C50.3257 15.1329 50.1141 14.883 50.16 14.6086L50.7262 11.2251C50.7885 10.8529 51.1107 10.5802 51.4881 10.5802H51.8564C52.0676 10.5802 52.2408 10.7476 52.2478 10.9587C52.2623 11.3948 52.8717 11.4839 53.0104 11.0702L53.0766 10.8729C53.1352 10.698 53.299 10.5802 53.4835 10.5802H53.7653C54.2721 10.5802 54.6578 11.035 54.5751 11.535L54.0464 14.7293ZM71.7067 13.6997C71.7282 13.5784 71.6346 13.468 71.5115 13.468C70.9594 13.468 70.6798 13.6575 70.6798 14.0314C70.6798 14.262 70.8161 14.4087 71.0289 14.4087C71.3711 14.4087 71.631 14.1279 71.7067 13.6997ZM72.4849 14.7598C72.4551 14.9707 72.2743 15.1329 72.0613 15.1329H71.7289C71.6753 15.1329 71.6326 15.0881 71.6351 15.0346C71.6394 14.9441 71.5171 14.8937 71.4453 14.949C71.2286 15.1161 70.9608 15.1966 70.6277 15.1966C70.0994 15.1966 69.7377 14.7841 69.7377 14.1851C69.7377 13.2839 70.3671 12.7581 71.4483 12.7581C71.4949 12.7581 71.5469 12.7599 71.6025 12.7633C71.7411 12.7719 71.8832 12.6855 71.8832 12.5466C71.8832 12.3012 71.7136 12.2097 71.2584 12.2097C71.1017 12.2079 70.9541 12.2196 70.8208 12.2379C70.5455 12.2758 70.2942 11.9631 70.3387 11.6888C70.3615 11.5482 70.4491 11.517 70.5869 11.481C70.9531 11.3852 71.2265 11.3476 71.5279 11.3476C72.365 11.3476 72.8081 11.7232 72.8073 12.4332C72.8089 12.6235 72.7775 12.8582 72.7283 13.1668C72.6663 13.5626 72.551 14.292 72.4849 14.7598ZM61.4528 14.8566C61.4316 14.9914 61.3364 15.1048 61.2038 15.1368C61.0322 15.1781 60.8797 15.1966 60.7182 15.1966C60.2201 15.1966 59.9482 14.9103 59.9482 14.3832C59.9411 14.2197 60.0199 13.7893 60.0817 13.3964C60.1229 13.1429 60.3307 11.9036 60.4388 11.2598C60.4766 11.0343 60.6717 10.8699 60.9005 10.8699H61.1869C61.3347 10.8699 61.4455 11.0052 61.4162 11.1501C61.387 11.295 61.4977 11.4303 61.6455 11.4303H61.6598C61.8099 11.4303 61.9249 11.5636 61.9028 11.7121L61.8559 12.0281C61.831 12.1959 61.6869 12.3201 61.5173 12.3201C61.3492 12.3201 61.2059 12.4423 61.1785 12.6082C61.0731 13.2442 60.9525 13.9168 60.9509 14.0176C60.9509 14.2085 61.0527 14.2918 61.2844 14.2918C61.4042 14.2918 61.5244 14.4015 61.5058 14.5199L61.4528 14.8566ZM64.4269 14.8231C64.4029 14.9602 64.3043 15.0739 64.1689 15.1063C63.9124 15.1675 63.6589 15.1973 63.3938 15.1966C62.3097 15.1956 61.7445 14.6293 61.7445 13.545C61.7445 12.2794 62.4635 11.3477 63.4395 11.3477C64.238 11.3477 64.748 11.8693 64.748 12.6875C64.748 12.7277 64.7472 12.7678 64.7456 12.8082C64.7272 13.2754 64.2965 13.5981 63.829 13.5981H63.5858C63.0801 13.5981 62.6227 14.134 63.1014 14.2969C63.2253 14.339 63.3737 14.3589 63.5417 14.3589C63.6557 14.3589 63.7661 14.3512 63.8752 14.3351C64.1706 14.2914 64.4783 14.5289 64.4269 14.8231ZM63.3827 12.8516C63.6421 12.8516 63.9114 12.6306 63.7916 12.4005C63.7309 12.2838 63.6137 12.1908 63.3928 12.1908C63.2597 12.1908 63.1429 12.2345 63.046 12.3185C62.8088 12.5239 63.0689 12.8516 63.3827 12.8516ZM57.6724 12.6008C57.6724 13.0691 57.8995 13.392 58.4145 13.6346C58.8091 13.82 58.8701 13.875 58.8701 14.0431C58.8701 14.2739 58.6961 14.3781 58.3105 14.3781C58.1727 14.3781 58.0394 14.3679 57.9041 14.3464C57.6548 14.3069 57.401 14.465 57.3619 14.7145C57.3284 14.9283 57.4671 15.1286 57.6819 15.1552C57.8319 15.1739 58.0275 15.1886 58.3176 15.1966C59.3457 15.1966 59.8205 14.8052 59.8205 13.9591C59.8205 13.4504 59.6218 13.1518 59.1337 12.9275C58.7251 12.74 58.6782 12.6981 58.6782 12.5252C58.6782 12.325 58.8401 12.2229 59.1551 12.2229C59.2356 12.2229 59.3284 12.2265 59.4273 12.2333C59.6657 12.2497 59.8856 12.0896 59.9237 11.8538C59.9624 11.6143 59.799 11.3894 59.5572 11.369C59.4011 11.3558 59.2485 11.3477 59.1364 11.3477C58.0464 11.3477 57.6691 11.917 57.6724 12.6008ZM69.1269 11.445C69.2217 11.445 69.3142 11.4537 69.4094 11.4725C69.7151 11.533 70.0481 11.3774 70.0978 11.0697C70.1323 10.8556 70.0202 10.6308 69.8254 10.5355C69.6111 10.4308 69.3354 10.3179 69.0861 10.3179C68.684 10.3179 68.3203 10.4409 68.0096 10.6604C67.6539 10.9117 67.1437 11.0041 66.8068 11.2799C66.6732 11.3893 66.5614 11.5444 66.4429 11.7029C66.4231 11.7293 66.3946 11.7478 66.3624 11.7553C66.2651 11.778 66.1772 11.6952 66.1857 11.5956C66.1862 11.5894 66.1867 11.5832 66.1872 11.577C66.1932 11.4951 66.1251 11.4304 66.043 11.4304H65.729C65.4821 11.4304 65.2754 11.6166 65.2448 11.8615C65.1191 12.8667 64.9347 13.8806 64.7864 14.8841C64.7633 15.0139 64.8631 15.1329 64.9949 15.1329H65.3093C65.5438 15.1329 65.7435 14.9616 65.7783 14.7297C65.8807 14.0468 65.9484 13.5461 65.9953 13.169C66.0131 13.0257 66.0977 12.8993 66.2239 12.8291L66.231 12.8252C66.3327 12.7686 66.3823 12.6889 66.4594 12.6018C66.6349 12.4034 66.9157 12.7084 66.8995 12.9727C66.8943 13.0587 66.8917 13.1449 66.8918 13.2312C66.8918 14.4425 67.5453 15.1966 68.5943 15.1966C68.7953 15.1966 68.9751 15.1769 69.2018 15.1268C69.3572 15.0924 69.472 14.963 69.4979 14.806C69.5519 14.4796 69.2059 14.2357 68.8758 14.2571C68.8498 14.2587 68.8242 14.2596 68.7988 14.2596C68.2324 14.2596 67.8897 13.8415 67.8897 13.1504C67.8896 12.1479 68.3994 11.445 69.1269 11.445Z"
      fill="black"
    />
    <path
      d="M54.3276 14.4586C54.2891 14.6914 54.0877 14.8622 53.8517 14.8622H53.6319C53.4505 14.8622 53.3122 14.7 53.3407 14.5209C53.3972 14.1668 52.8921 14.0377 52.7718 14.3755L52.6746 14.6485C52.629 14.7766 52.5077 14.8622 52.3717 14.8622H52.2316C52.0664 14.8622 51.9313 14.7302 51.9274 14.565C51.9187 14.1963 51.3844 14.1579 51.3231 14.5216L51.3095 14.6019C51.2842 14.7522 51.1541 14.8622 51.0018 14.8622H50.8851C50.6069 14.8622 50.3953 14.6122 50.4413 14.3378L51.0086 10.9483C51.0702 10.58 51.3891 10.3101 51.7626 10.3101H52.1109C52.3358 10.3101 52.5189 10.4907 52.5221 10.7155C52.5286 11.1782 53.176 11.2792 53.3231 10.8405L53.3978 10.6178C53.4595 10.434 53.6317 10.3101 53.8256 10.3101H54.0744C54.5667 10.3101 54.9412 10.7518 54.8609 11.2374L54.3276 14.4586Z"
      fill="white"
    />
    <path
      d="M77.7316 10.5801C77.5258 10.5801 77.3504 10.7291 77.317 10.9321C77.2573 11.296 76.7631 11.3894 76.403 11.31C76.3469 11.2976 76.2888 11.2911 76.2283 11.2911C75.821 11.2911 75.4441 11.5468 75.1602 11.9464C75.0528 12.0974 74.8712 12.1874 74.6919 12.1404C74.421 12.0694 74.1969 11.9946 74.1692 11.9852C74.1676 11.9847 74.1662 11.9859 74.1661 11.9876C74.1698 11.9535 74.1732 11.9209 74.1764 11.8898C74.2025 11.6332 74.0061 11.4303 73.7482 11.4303C73.5014 11.4303 73.2948 11.6165 73.2643 11.8613C73.1389 12.8666 72.9545 13.8804 72.8064 14.884C72.7831 15.0137 72.8828 15.1328 73.0145 15.1328H73.3292C73.5634 15.1328 73.7628 14.9619 73.7977 14.7303C73.8851 14.1504 73.957 13.6455 74.0149 13.216C74.0332 13.08 74.1331 12.9224 74.2308 12.826C74.515 12.5459 74.7219 12.8519 74.6699 13.2475C74.6521 13.3829 74.6428 13.521 74.6428 13.6603C74.6428 14.5859 75.1111 15.1965 75.8195 15.1965C76.0942 15.1965 76.3198 15.1236 76.5309 14.96C76.5936 14.9114 76.6948 14.9614 76.6844 15.04C76.6779 15.0888 76.7159 15.1322 76.7652 15.1322H77.2003C77.4272 15.1322 77.6206 14.9678 77.6571 14.7439L78.2461 11.1309C78.2932 10.8422 78.0703 10.5801 77.7778 10.5801H77.7316ZM76.1563 14.2772C75.8246 14.2772 75.6572 14.0317 75.6572 13.5473C75.6572 12.8197 75.9707 12.3036 76.4128 12.3036C76.7475 12.3036 76.9288 12.5588 76.9288 13.029C76.9288 13.763 76.6103 14.2772 76.1563 14.2772Z"
      fill="black"
    />
    <path
      d="M56.6373 13.43C56.6588 13.3086 56.5652 13.1982 56.4419 13.1982C55.8896 13.1982 55.6102 13.3876 55.6102 13.7615C55.6102 13.9917 55.7467 14.1389 55.9592 14.1389C56.3016 14.1388 56.5613 13.8582 56.6373 13.43ZM57.4154 14.4894C57.3856 14.7003 57.2048 14.8624 56.9919 14.8624H56.6592C56.6057 14.8624 56.563 14.8177 56.5656 14.7642C56.5699 14.6738 56.4478 14.6235 56.3762 14.6787C56.1594 14.8459 55.8915 14.9267 55.5582 14.9267C55.0298 14.9267 54.668 14.5142 54.668 13.9153C54.668 13.0137 55.2975 12.4882 56.3788 12.4882C56.4253 12.4882 56.4773 12.49 56.5327 12.4934C56.6716 12.502 56.8138 12.4155 56.8138 12.2763C56.8138 12.0309 56.6442 11.9398 56.189 11.9398C56.0319 11.9381 55.884 11.9498 55.7504 11.9682C55.4752 12.0061 55.2245 11.6939 55.2689 11.4197C55.2917 11.279 55.3793 11.2474 55.5172 11.2112C55.8833 11.1151 56.1571 11.0775 56.4586 11.0775C57.2955 11.0775 57.7388 11.4534 57.738 12.1628C57.7394 12.3538 57.7077 12.5884 57.6588 12.8965C57.5965 13.2921 57.4814 14.0217 57.4154 14.4894ZM70.0847 10.3148C70.2934 10.3745 70.4125 10.5856 70.3779 10.7999C70.3282 11.1076 69.9952 11.2633 69.6894 11.2027C69.5943 11.1838 69.5019 11.1751 69.4072 11.1751C68.6797 11.1751 68.1697 11.878 68.1697 12.8804C68.1697 13.5715 68.5126 13.9895 69.0789 13.9895C69.1042 13.9895 69.1298 13.9887 69.1557 13.987C69.4857 13.9657 69.8318 14.2095 69.778 14.5358C69.7521 14.6926 69.6377 14.8219 69.4826 14.8564C69.2555 14.907 69.0757 14.9267 68.8743 14.9267C67.8255 14.9267 67.1718 14.1725 67.1718 12.9613C67.1718 11.3338 68.0747 10.1963 69.3662 10.1963C69.6074 10.1963 69.8735 10.2543 70.0847 10.3148ZM71.9873 13.43C72.0089 13.3086 71.9152 13.1982 71.792 13.1982C71.2399 13.1982 70.9603 13.3876 70.9603 13.7615C70.9603 13.9917 71.0967 14.1389 71.3095 14.1389C71.6515 14.1388 71.9113 13.8582 71.9873 13.43ZM72.7654 14.4892C72.7356 14.7002 72.5547 14.8624 72.3417 14.8624H72.009C71.9555 14.8624 71.9129 14.8176 71.9155 14.7642C71.9198 14.6738 71.7978 14.6235 71.7261 14.6787C71.5093 14.8459 71.2415 14.9267 70.9082 14.9267C70.3801 14.9267 70.018 14.5142 70.018 13.9153C70.018 13.0137 70.6478 12.4882 71.7286 12.4882C71.7752 12.4882 71.8273 12.49 71.8827 12.4934C72.0215 12.502 72.1638 12.4154 72.1638 12.2763C72.1638 12.0309 71.9942 11.9398 71.539 11.9398C71.382 11.9381 71.2341 11.9498 71.1005 11.9682C70.8253 12.0061 70.5746 11.6939 70.6191 11.4196C70.642 11.279 70.7296 11.2474 70.8674 11.2113C71.2335 11.1151 71.5071 11.0775 71.8086 11.0775C72.6457 11.0775 73.0888 11.4534 73.0877 12.1628C73.0894 12.3538 73.058 12.5884 73.0088 12.8965C72.9467 13.2921 72.8314 14.0215 72.7654 14.4892ZM61.7333 14.5865C61.7121 14.7211 61.617 14.8344 61.4845 14.8664C61.3127 14.908 61.1602 14.9267 60.9987 14.9267C60.5006 14.9267 60.2287 14.6404 60.2287 14.1134C60.2218 13.9494 60.3006 13.5194 60.3625 13.1265C60.4035 12.8727 60.6113 11.6335 60.7193 10.9898C60.7572 10.7643 60.9523 10.5999 61.181 10.5999H61.4672C61.615 10.5999 61.7258 10.7353 61.6966 10.8802L61.6905 10.9105C61.6645 11.0398 61.7633 11.1605 61.8952 11.1605C62.0227 11.1605 62.1204 11.2738 62.1016 11.4L62.0419 11.8019C62.0207 11.9444 61.8983 12.0499 61.7542 12.0499C61.6114 12.0499 61.4897 12.1537 61.4664 12.2947C61.3594 12.9433 61.2329 13.644 61.2314 13.7473C61.2314 13.9388 61.3335 14.0215 61.565 14.0215C61.6847 14.0215 61.8049 14.1316 61.7863 14.2499L61.7333 14.5865ZM64.7074 14.5534C64.6834 14.6904 64.5849 14.8041 64.4496 14.8364C64.1931 14.8976 63.9393 14.9272 63.6743 14.9267C62.5901 14.9257 62.025 14.3594 62.025 13.2751C62.025 12.009 62.744 11.0776 63.72 11.0776C64.5185 11.0776 65.0285 11.599 65.0285 12.4176C65.0285 12.4577 65.0277 12.4976 65.0261 12.5378C65.0079 13.0052 64.577 13.3282 64.1093 13.3282H63.8664C63.3608 13.3282 62.9033 13.8639 63.3818 14.027C63.5058 14.0693 63.6544 14.0892 63.8225 14.0892C63.9362 14.0892 64.0464 14.0815 64.1553 14.0654C64.4508 14.0217 64.7588 14.2591 64.7074 14.5534ZM63.6649 12.5811C63.9237 12.5811 64.1916 12.3618 64.073 12.1317C64.0125 12.0142 63.8951 11.9203 63.6731 11.9203C63.5407 11.9203 63.4245 11.9637 63.3279 12.047C63.0896 12.2523 63.3503 12.5811 63.6649 12.5811ZM57.9527 12.3309C57.9527 12.7992 58.1798 13.1217 58.6948 13.3647C59.0894 13.5501 59.1504 13.6053 59.1504 13.7732C59.1504 14.004 58.9763 14.1082 58.5911 14.1082C58.4532 14.1082 58.3199 14.098 58.1846 14.0765C57.9351 14.037 57.6812 14.1956 57.6422 14.4452C57.6088 14.6589 57.7474 14.8586 57.9621 14.8851C58.112 14.9037 58.3077 14.9184 58.5979 14.9267C59.6263 14.9267 60.1009 14.5353 60.1009 13.6894C60.1009 13.1804 59.9023 12.8819 59.414 12.6576C59.0056 12.4697 58.9584 12.4284 58.9584 12.2553C58.9584 12.0553 59.1206 11.9524 59.4354 11.9524C59.5158 11.9524 59.6086 11.9561 59.7077 11.963C59.9461 11.9797 60.1661 11.8197 60.2042 11.5837C60.2428 11.3441 60.0793 11.1193 59.8375 11.0989C59.6815 11.0857 59.529 11.0776 59.4169 11.0776C58.3267 11.0776 57.9496 11.6465 57.9527 12.3309ZM77.9385 14.4741C77.902 14.698 77.7086 14.8624 77.4818 14.8624H77.0464C76.9972 14.8624 76.9591 14.819 76.9656 14.7701C76.9761 14.6915 76.8748 14.6415 76.8121 14.6901C76.601 14.8539 76.3756 14.9267 76.1009 14.9267C75.3925 14.9267 74.9244 14.3161 74.9244 13.3905C74.9244 12.159 75.6504 11.1208 76.5098 11.1208C76.553 11.1208 76.5949 11.1229 76.6357 11.1269C77.0027 11.1636 77.5386 11.0261 77.5984 10.6622C77.6318 10.4592 77.8072 10.3102 78.0129 10.3102H78.0592C78.3517 10.3102 78.5746 10.5724 78.5275 10.8611L77.9385 14.4741ZM76.438 14.0069C76.8917 14.0069 77.2105 13.4928 77.2105 12.7593C77.2105 12.289 77.029 12.0338 76.6942 12.0338C76.2523 12.0338 75.9384 12.5497 75.9384 13.2776C75.9384 13.7619 76.1063 14.0069 76.438 14.0069ZM74.0297 11.1605C73.783 11.1605 73.5764 11.3467 73.5458 11.5915C73.4203 12.5967 73.236 13.6105 73.0877 14.6136C73.0645 14.7433 73.1642 14.8624 73.2959 14.8624H73.6105C73.8448 14.8624 74.0439 14.6914 74.08 14.4599C74.2766 13.1992 74.3898 12.6015 74.5905 12.3552C74.7522 12.1568 75.0307 12.0175 75.1051 11.7725C75.1462 11.6372 75.1912 11.5133 75.2361 11.4063C75.2927 11.271 75.2133 11.1024 75.0706 11.1361C74.9392 11.1672 74.8257 11.244 74.7142 11.3595C74.6333 11.4433 74.4855 11.3822 74.4906 11.2659C74.4933 11.2066 74.4441 11.1605 74.3848 11.1605H74.0297ZM66.0082 11.1605C65.7617 11.1605 65.5554 11.3464 65.5248 11.5909C65.3991 12.5964 65.2146 13.6104 65.0665 14.6136C65.0433 14.7433 65.1431 14.8624 65.2748 14.8624H65.5895C65.824 14.8624 66.0233 14.6912 66.0594 14.4595C66.2556 13.1998 66.3686 12.6022 66.5689 12.3556C66.7304 12.1568 67.0093 12.0174 67.0839 11.7723C67.1251 11.6368 67.1702 11.5129 67.215 11.4058C67.2716 11.2707 67.1922 11.1024 67.0497 11.136C66.9182 11.1671 66.8046 11.2439 66.693 11.3596C66.6122 11.4433 66.4642 11.3823 66.4694 11.266C66.4721 11.2067 66.423 11.1605 66.3636 11.1605H66.0082ZM78.3033 14.5726C78.3033 14.4119 78.4331 14.2826 78.5931 14.2826C78.753 14.2824 78.8827 14.4119 78.8829 14.5718V14.5726C78.8828 14.7326 78.7531 14.8623 78.5931 14.8624C78.4331 14.8623 78.3034 14.7326 78.3033 14.5726ZM78.5931 14.7928C78.7147 14.7928 78.8133 14.6943 78.8133 14.5727V14.5726C78.8134 14.451 78.7149 14.3523 78.5933 14.3522H78.5931C78.4714 14.3523 78.3727 14.4509 78.3727 14.5726C78.3728 14.6942 78.4715 14.7928 78.5931 14.7928ZM78.5539 14.6991C78.5539 14.6992 78.5539 14.6993 78.5538 14.6993H78.5242C78.5078 14.6993 78.4945 14.686 78.4945 14.6696V14.5528C78.4945 14.4933 78.5427 14.4451 78.6022 14.4451C78.6245 14.4451 78.6476 14.4455 78.667 14.4578C78.6878 14.4719 78.6997 14.4961 78.6997 14.5215C78.6997 14.5333 78.6969 14.5449 78.6916 14.555C78.6791 14.5791 78.6641 14.6082 78.6746 14.6331L78.6848 14.6573C78.6931 14.6772 78.6786 14.6991 78.657 14.6991C78.6446 14.6991 78.6335 14.6915 78.629 14.6799L78.6038 14.6152C78.6 14.6053 78.5904 14.5987 78.5797 14.5987C78.5655 14.5987 78.5539 14.6103 78.5539 14.6246V14.6991ZM78.5539 14.5229C78.5539 14.5408 78.5687 14.5553 78.5866 14.5553C78.5989 14.5553 78.6123 14.5562 78.6231 14.5503C78.6328 14.544 78.6378 14.5322 78.6378 14.5209C78.6374 14.5104 78.6321 14.5007 78.6235 14.4947C78.6133 14.4889 78.5964 14.4905 78.5853 14.4905C78.568 14.4905 78.5539 14.5046 78.5539 14.5219V14.5229Z"
      fill="white"
    />
    <path
      d="M128 0H91C90.4477 0 90 0.447716 90 1V24C90 24.5523 90.4477 25 91 25H128C128.552 25 129 24.5523 129 24V1C129 0.447715 128.552 0 128 0Z"
      fill="#2557D6"
    />
    <path
      d="M90.009 11.7851C90.009 11.7851 90.0091 11.7851 90.0091 11.7851H91.3496C91.6722 11.7851 91.964 11.5934 92.0921 11.2974L92.1156 11.243C92.2295 10.9799 92.4888 10.8096 92.7754 10.8096C93.0624 10.8096 93.3218 10.9802 93.4355 11.2437L93.4587 11.2974C93.5864 11.5934 93.878 11.7851 94.2004 11.7851H97.2232C97.2947 11.7851 97.3526 11.7272 97.3526 11.6558C97.3526 11.5158 97.5441 11.4756 97.6004 11.6038L97.6418 11.6981C97.6658 11.7529 97.7201 11.7884 97.78 11.7884H99.4944C99.5546 11.7884 99.609 11.7526 99.6329 11.6974L99.6734 11.6038C99.7293 11.4745 99.9223 11.5144 99.9223 11.6553C99.9223 11.727 99.9805 11.7852 100.052 11.7852H108.276C108.718 11.7852 109.075 11.4264 109.074 10.9845L109.073 10.361C109.072 10.2632 109.151 10.1839 109.249 10.1839C109.373 10.188 109.409 10.199 109.409 10.3952V10.7852C109.409 11.3375 109.857 11.7852 110.409 11.7852H114.002C114.081 11.7852 114.144 11.7219 114.144 11.6438C114.144 11.5381 114.256 11.4687 114.354 11.5088C114.731 11.6628 115.251 11.7852 115.901 11.7852H117.361C117.684 11.7852 117.977 11.5937 118.106 11.2974L118.131 11.2407C118.245 10.9789 118.504 10.8097 118.79 10.8097C119.078 10.8097 119.338 10.9814 119.451 11.2461L119.473 11.2974C119.599 11.5933 119.89 11.7852 120.212 11.7852H123.312C123.427 11.7852 123.519 11.6925 123.519 11.5781C123.519 11.3703 123.791 11.2921 123.902 11.4681L124.021 11.6579C124.071 11.7371 124.157 11.7852 124.251 11.7852H126.176C126.729 11.7852 127.176 11.3375 127.176 10.7852V6.65967C127.176 6.10738 126.729 5.65967 126.176 5.65967H124.287C124.202 5.65967 124.132 5.72905 124.132 5.81464C124.132 5.97247 123.924 6.02928 123.844 5.89329L123.764 5.75719C123.728 5.69676 123.663 5.65967 123.593 5.65967H120.729C120.648 5.65967 120.583 5.7251 120.583 5.80582C120.583 5.9575 120.38 6.00877 120.308 5.87537L120.243 5.75451C120.211 5.69608 120.15 5.65967 120.084 5.65967H115.972C115.358 5.65967 114.809 5.73113 114.346 5.92295C114.252 5.96175 114.144 5.89575 114.144 5.79442C114.144 5.72 114.084 5.65967 114.009 5.65967H111.346C111.283 5.65967 111.232 5.7103 111.232 5.77276C111.232 5.86916 111.116 5.92531 111.032 5.87824C110.741 5.71546 110.384 5.65967 109.995 5.65967H99.7537C99.5128 5.65967 99.2943 5.8008 99.1953 6.02035C98.9795 6.49861 98.2985 6.49532 98.0779 6.01925C97.9769 5.80119 97.7575 5.65967 97.5172 5.65967H94.701C94.6237 5.65967 94.5611 5.72231 94.5611 5.79958C94.5611 5.94669 94.3632 5.99415 94.2965 5.86304L94.2402 5.7524C94.2112 5.6955 94.1528 5.65967 94.0889 5.65967H91.979C91.5872 5.65967 91.2315 5.88849 91.069 6.24504L90.0988 8.37442C90.0395 8.5046 90.0088 8.64599 90.0088 8.78905V11.7849C90.0088 11.785 90.0088 11.785 90.0089 11.785C90.0089 11.785 90.009 11.785 90.009 11.785L90.009 11.7851ZM101.826 10.3397C101.826 10.65 101.574 10.9016 101.264 10.9016C100.954 10.9016 100.703 10.6504 100.702 10.3404L100.702 10.281C100.701 9.6152 99.7958 9.41675 99.5166 10.0212L99.3063 10.4765C99.1866 10.7357 98.9272 10.9016 98.6418 10.9016H98.6158C98.3306 10.9016 98.0713 10.7358 97.9515 10.4769L97.7399 10.0196C97.4603 9.41547 96.555 9.61475 96.555 10.2804C96.555 10.6235 96.277 10.9016 95.9339 10.9016H94.8597C94.5362 10.9016 94.2438 10.709 94.116 10.4118C93.9883 10.1146 93.6959 9.92197 93.3724 9.92197H92.1581C91.8339 9.92197 91.5407 10.1144 91.4116 10.4118L91.3404 10.5757C91.2545 10.7736 91.0594 10.9016 90.8437 10.9016C90.4515 10.9016 90.1894 10.4975 90.3494 10.1393L91.7064 7.10182C91.8673 6.74164 92.225 6.50972 92.6194 6.50972H93.0446C93.3818 6.50972 93.6876 6.70778 93.8256 7.01554L94.0614 7.54177C94.3844 8.26261 95.4623 8.03212 95.4623 7.24222C95.4623 6.83767 95.7903 6.50972 96.1948 6.50972H96.6221C97.0063 6.50972 97.3566 6.72985 97.5232 7.07605L97.7449 7.53679C98.1149 8.30549 99.2157 8.28772 99.5606 7.50747L99.7384 7.10536C99.8985 6.74328 100.257 6.50972 100.653 6.50972H100.826C101.378 6.50972 101.826 6.95743 101.826 7.50971L101.826 10.3397ZM92.7824 9.01047C93.1368 9.01047 93.3758 8.6481 93.2363 8.32229C93.0651 7.9227 92.4985 7.92327 92.3281 8.3232C92.1894 8.6489 92.4284 9.01047 92.7824 9.01047ZM106.296 10.4473C106.296 10.6982 106.093 10.9015 105.842 10.9015H103.636C103.084 10.9015 102.636 10.4538 102.636 9.90152V7.50967C102.636 6.95738 103.084 6.50967 103.636 6.50967H105.839C106.091 6.50967 106.296 6.7144 106.296 6.96694C106.296 7.21949 106.091 7.42422 105.839 7.42422H104.127C103.909 7.42422 103.732 7.60143 103.732 7.82004C103.732 8.03865 103.909 8.21587 104.127 8.21587H105.784C106.033 8.21587 106.235 8.41739 106.235 8.66599C106.235 8.91459 106.033 9.11612 105.784 9.11612H104.17C103.928 9.11612 103.732 9.31246 103.732 9.55467C103.732 9.79687 103.928 9.99322 104.17 9.99322H105.842C106.093 9.99322 106.296 10.1965 106.296 10.4473ZM111.454 7.69252C111.454 8.02149 111.346 8.27577 111.203 8.46418C111.064 8.64659 111.085 9.05049 111.224 9.23297C111.379 9.45142 111.405 9.64652 111.405 10.0388V10.3468C111.405 10.6532 111.157 10.9015 110.851 10.9015C110.546 10.9015 110.298 10.6524 110.296 10.3477C110.296 10.0834 110.323 9.70337 110.123 9.49207C109.963 9.33757 109.719 9.30407 109.325 9.30407H108.947C108.506 9.30407 108.148 9.66168 108.148 10.1028V10.3537C108.148 10.6563 107.903 10.9016 107.601 10.9016C107.298 10.9016 107.053 10.6563 107.053 10.3537V7.50967C107.053 6.95738 107.5 6.50967 108.053 6.50967H109.573C110.133 6.50967 110.545 6.52382 110.9 6.72002C111.246 6.91622 111.454 7.20262 111.454 7.69252ZM110.069 8.34462C109.918 8.43222 109.74 8.43512 109.527 8.43512H108.684C108.414 8.43512 108.196 8.21674 108.196 7.94737C108.196 7.67799 108.414 7.45962 108.684 7.45962H109.545C109.736 7.45962 109.935 7.46782 110.065 7.53882C110.207 7.60282 110.295 7.73897 110.295 7.92707C110.295 8.11907 110.211 8.27352 110.069 8.34462ZM113.211 10.3426C113.211 10.6513 112.961 10.9015 112.652 10.9015C112.344 10.9015 112.093 10.6513 112.093 10.3426V7.06862C112.093 6.75992 112.344 6.50967 112.652 6.50967C112.961 6.50967 113.211 6.75992 113.211 7.06862V10.3426ZM126.189 9.90152C126.189 10.4538 125.742 10.9015 125.189 10.9015H125.172C124.839 10.9015 124.529 10.7304 124.351 10.4484L123.923 9.76929C123.529 9.14265 122.56 9.42234 122.56 10.163C122.56 10.5709 122.229 10.9015 121.821 10.9015H120.863C120.538 10.9015 120.245 10.7092 120.115 10.4117C119.986 10.1143 119.692 9.92192 119.368 9.92192H118.158C117.836 9.92192 117.545 10.1149 117.419 10.4117C117.294 10.7086 117.003 10.9015 116.681 10.9015H115.93C115.398 10.9015 114.723 10.7887 114.341 10.4158C113.956 10.0429 113.756 9.53777 113.756 8.73912C113.756 8.08777 113.876 7.49232 114.347 7.02177C114.701 6.67127 115.256 6.50967 116.011 6.50967H116.601C116.861 6.50967 117.071 6.72033 117.071 6.98019C117.071 7.24006 116.861 7.45072 116.601 7.45072H116.033C115.633 7.45072 115.407 7.50772 115.19 7.71087C115.003 7.89582 114.875 8.24537 114.875 8.70572C114.875 9.17622 114.972 9.51552 115.176 9.73712C115.345 9.91092 115.651 9.96362 115.94 9.96362C116.239 9.96362 116.51 9.78767 116.633 9.51438L117.711 7.10165C117.872 6.74162 118.23 6.50982 118.624 6.50982H119.065C119.401 6.50982 119.706 6.70745 119.843 7.01435L120.077 7.53731C120.398 8.25642 121.473 8.02727 121.473 7.23971C121.473 6.83663 121.8 6.50987 122.203 6.50987H122.644C122.954 6.50987 123.241 6.6686 123.406 6.93023L123.802 7.55994C124.168 8.14135 125.067 7.88199 125.067 7.19492V7.07099C125.067 6.76109 125.318 6.50987 125.628 6.50987C125.938 6.50987 126.189 6.76109 126.189 7.07099V9.90152ZM118.772 9.01052C119.13 9.01052 119.371 8.6441 119.228 8.31588C119.055 7.91605 118.488 7.91662 118.316 8.3168C118.174 8.64491 118.415 9.01052 118.772 9.01052ZM128.981 17.9144C128.981 17.9145 128.981 17.9146 128.981 17.9147C128.715 18.2874 128.196 18.4764 127.494 18.4764H125.85C125.589 18.4764 125.379 18.2655 125.379 18.0054C125.379 17.7453 125.589 17.5344 125.85 17.5344H127.486C127.695 17.5344 127.841 17.5081 127.929 17.4257C128.013 17.352 128.06 17.248 128.059 17.1392C128.059 17.0112 128.006 16.9096 127.925 16.8487C127.845 16.7816 127.73 16.7512 127.539 16.7512C126.51 16.7177 125.227 16.7816 125.227 15.3915C125.227 14.7544 125.649 14.0837 126.799 14.0837H128.544C128.785 14.0837 128.981 13.888 128.981 13.6467C128.981 13.4054 128.785 13.2097 128.544 13.2097H126.953C126.462 13.2097 126.079 13.3001 125.784 13.4485C125.695 13.4932 125.582 13.4324 125.582 13.333C125.582 13.2649 125.527 13.2097 125.459 13.2097H122.583C122.205 13.2097 121.776 13.2803 121.48 13.4299C121.395 13.473 121.274 13.4144 121.274 13.3191C121.274 13.2587 121.225 13.2097 121.164 13.2097H116.041C115.973 13.2097 115.918 13.2649 115.918 13.3331C115.918 13.4326 115.803 13.4948 115.713 13.453C115.289 13.2563 114.724 13.2097 114.44 13.2097H111.017C110.956 13.2097 110.908 13.2585 110.908 13.3186C110.908 13.4138 110.786 13.4721 110.701 13.4298C110.321 13.2411 109.742 13.2097 109.363 13.2097H105.779C105.543 13.2097 105.317 13.3058 105.152 13.4761L105.125 13.5045C104.79 13.8524 104.23 13.8433 103.906 13.4847C103.747 13.3096 103.523 13.2097 103.287 13.2097H98.7507C98.1985 13.2097 97.7507 13.6574 97.7507 14.2097V18.3392C97.7507 18.8914 98.1985 19.3392 98.7507 19.3392H103.165C103.409 19.3392 103.642 19.2411 103.812 19.0671L103.838 19.0405C104.186 18.6847 104.761 18.6933 105.098 19.0593C105.263 19.2377 105.494 19.3393 105.737 19.3395L108.207 19.3416C108.605 19.3419 108.928 19.0192 108.928 18.621V18.2514C108.928 18.0575 109.086 17.9003 109.279 17.9003C109.457 17.9029 109.646 17.902 109.84 17.8891C110.311 17.8576 110.806 18.2041 110.806 18.6763C110.806 19.0423 111.102 19.339 111.468 19.339H112.953C113.394 19.339 113.752 18.9813 113.752 18.5402V17.8835C113.752 17.805 113.816 17.7414 113.894 17.7414C114.075 17.7414 114.093 17.7486 114.093 17.9221V18.3388C114.093 18.891 114.541 19.3388 115.093 19.3388H123.044C123.5 19.3388 123.972 19.2491 124.311 19.083C124.407 19.0358 124.535 19.1019 124.535 19.2093C124.535 19.2808 124.593 19.3388 124.664 19.3388H127.374C127.833 19.3388 128.284 19.2908 128.668 19.1741C128.863 19.1148 128.981 18.9259 128.981 18.7221L128.981 17.9146C128.981 17.9145 128.981 17.9144 128.981 17.9144ZM111.234 15.5568C111.234 16.7771 110.284 17.029 109.326 17.029H108.696C108.289 17.029 107.959 17.3589 107.959 17.7657C107.959 18.1726 107.629 18.5025 107.222 18.5025H106.266C105.988 18.5025 105.722 18.3866 105.533 18.1826L105.2 17.8233C104.809 17.4024 104.145 17.396 103.747 17.8094L103.373 18.1965C103.185 18.392 102.925 18.5025 102.653 18.5025H99.7382C99.186 18.5025 98.7382 18.0547 98.7382 17.5025V15.1095C98.7382 14.5572 99.186 14.1095 99.7382 14.1095H102.711C102.988 14.1095 103.252 14.2241 103.441 14.4261L103.775 14.7826C104.166 15.1999 104.826 15.2054 105.224 14.7946L105.592 14.414C105.78 14.2194 106.04 14.1095 106.311 14.1095H109.388C110.257 14.1095 111.234 14.3402 111.234 15.5568ZM102.818 17.2751C102.63 17.469 102.371 17.5785 102.1 17.5785H100.266C100.025 17.5785 99.8294 17.3828 99.8294 17.1415C99.8294 16.9001 100.025 16.7045 100.266 16.7045H101.787C102.034 16.7045 102.235 16.5038 102.235 16.2563C102.235 16.0088 102.034 15.8082 101.787 15.8082H100.229C100.008 15.8082 99.8294 15.6294 99.8294 15.4088C99.8294 15.1883 100.008 15.0095 100.229 15.0095H102.143C102.419 15.0095 102.684 15.1241 102.873 15.3261L103.123 15.5936C103.488 15.9833 103.482 16.5908 103.111 16.9737L102.818 17.2751ZM106.864 16.2999C106.864 16.9394 106.082 17.2493 105.644 16.7834C105.385 16.5085 105.389 16.0789 105.651 15.8081C106.093 15.3533 106.864 15.666 106.864 16.2999ZM109.352 16.1282H108.495C108.186 16.1282 107.936 15.8777 107.936 15.5688C107.936 15.2599 108.186 15.0095 108.495 15.0095H109.364C109.76 15.0095 110.035 15.164 110.035 15.5481C110.035 15.928 109.773 16.1282 109.352 16.1282ZM116.77 15.1095C116.77 14.5572 117.217 14.1095 117.77 14.1095H119.972C120.223 14.1095 120.427 14.3129 120.427 14.5638C120.427 14.8146 120.223 15.018 119.972 15.018H118.26C118.04 15.018 117.861 15.1968 117.861 15.4173C117.861 15.6379 118.04 15.8167 118.26 15.8167H119.916C120.163 15.8167 120.364 16.0173 120.364 16.2648C120.364 16.5123 120.163 16.713 119.916 16.713H118.298C118.057 16.713 117.861 16.9088 117.861 17.1503C117.861 17.3916 118.056 17.5873 118.297 17.5876L119.971 17.5903C120.223 17.5906 120.426 17.7947 120.426 18.0464C120.426 18.2983 120.222 18.5025 119.97 18.5025H117.77C117.217 18.5025 116.77 18.0547 116.77 17.5024L116.77 15.1095ZM115.884 16.0684C115.746 16.2464 115.767 16.6477 115.9 16.8297C116.055 17.0443 116.077 17.2444 116.082 17.6316V17.9524C116.082 18.2562 115.835 18.5025 115.532 18.5025C115.228 18.5025 114.982 18.2564 114.982 17.9529C114.982 17.6886 115.008 17.2973 114.805 17.093C114.645 16.9356 114.401 16.898 114.001 16.898H113.632C113.189 16.898 112.83 17.2572 112.83 17.7003V17.952C112.83 18.256 112.583 18.5025 112.279 18.5025C111.975 18.5025 111.729 18.256 111.729 17.952V15.1096C111.729 14.5573 112.177 14.1096 112.729 14.1096H114.259C114.813 14.1096 115.217 14.1331 115.577 14.3169C115.923 14.5171 116.14 14.7912 116.14 15.2924C116.14 15.6249 116.03 15.8802 115.884 16.0684ZM114.744 15.9056C114.598 15.989 114.417 15.9962 114.204 15.9962H113.366C113.093 15.9962 112.872 15.7753 112.872 15.5029C112.872 15.2304 113.093 15.0096 113.366 15.0096H114.222C114.417 15.0096 114.612 15.0136 114.744 15.0889C114.886 15.1601 114.971 15.2962 114.971 15.4841C114.971 15.672 114.886 15.8234 114.744 15.9056ZM124.635 16.1855C124.849 16.3969 124.963 16.664 124.963 17.1161C124.963 18.0611 124.347 18.5023 123.242 18.5023H121.579C121.319 18.5023 121.108 18.2914 121.108 18.0313C121.108 17.7711 121.319 17.5603 121.579 17.5603H123.233C123.441 17.5603 123.589 17.534 123.681 17.4515C123.756 17.3836 123.81 17.2849 123.81 17.1651C123.81 17.037 123.752 16.9355 123.677 16.8745C123.593 16.8075 123.477 16.7771 123.286 16.7771C122.262 16.7436 120.979 16.8075 120.979 15.4175C120.979 14.7803 121.396 14.1096 122.545 14.1096H124.274C124.532 14.1096 124.742 14.3189 124.742 14.5771C124.742 14.8353 124.532 15.0446 124.274 15.0446H122.732C122.533 15.0446 122.403 15.0518 122.293 15.1239C122.173 15.195 122.128 15.3006 122.128 15.4399C122.128 15.6056 122.23 15.7184 122.368 15.7672C122.484 15.8057 122.608 15.8169 122.794 15.8169L123.384 15.8322C123.979 15.846 124.387 15.9446 124.635 16.1855ZM128.983 15.0095H126.986C126.787 15.0095 126.654 15.0167 126.543 15.0888C126.427 15.16 126.383 15.2655 126.383 15.4049C126.383 15.5706 126.48 15.6833 126.622 15.7321C126.738 15.7707 126.862 15.7819 127.045 15.7819L127.638 15.7971C128.238 15.8113 128.638 15.91 128.881 16.1507C128.921 16.1807 128.983 16.16 128.983 16.1101V15.0095C128.983 15.0095 128.983 15.0095 128.983 15.0095Z"
      fill="white"
    />
  </svg>
