<svg width="30" height="26" viewBox="0 0 30 26" fill="none" xmlns="http://www.w3.org/2000/svg">
<path d="M12.2986 24.4388C10.4251 22.6982 8.96479 20.7611 7.9178 18.6275C6.92591 16.4939 6.42997 14.5849 6.42997 12.9005C6.87081 13.1812 7.50451 13.3216 8.33108 13.3216C9.92912 13.3216 11.2516 12.7321 12.2986 11.553C13.4007 10.43 13.9518 8.9702 13.9518 7.17348C13.9518 5.26448 13.3456 3.69236 12.1333 2.45712C10.921 1.27802 9.37807 0.688477 7.50451 0.688477C5.52074 0.688477 3.92271 1.33417 2.71041 2.62556C1.55321 3.91695 0.974609 5.51714 0.974609 7.42615C0.974609 11.0196 1.63587 14.2761 2.95838 17.1958C4.28089 20.1716 6.04424 22.5298 8.24842 24.2703C8.96478 24.7757 9.73625 25.0283 10.5628 25.0283C11.3343 25.0283 11.9129 24.8318 12.2986 24.4388ZM27.9208 24.4388C26.0472 22.6982 24.587 20.7611 23.54 18.6275C22.5481 16.4939 22.0521 14.5849 22.0521 12.9005C22.4379 13.1812 23.0716 13.3216 23.9533 13.3216C25.5513 13.3216 26.8738 12.7321 27.9208 11.553C29.0229 10.43 29.5739 8.9702 29.5739 7.17348C29.5739 5.26448 28.9402 3.69236 27.6728 2.45712C26.4605 1.27802 24.9451 0.688477 23.1267 0.688477C21.1429 0.688477 19.5449 1.33417 18.3326 2.62556C17.1203 3.91695 16.5141 5.51714 16.5141 7.42615C16.5141 11.0196 17.1754 14.2761 18.4979 17.1958C19.8755 20.1716 21.6664 22.5298 23.8706 24.2703C24.587 24.7757 25.3584 25.0283 26.185 25.0283C26.9565 25.0283 27.5351 24.8318 27.9208 24.4388Z" fill="#73A4E0" fill-opacity="0.1"/>
</svg>
