<svg width="30" height="25" viewBox="0 0 30 25" fill="none" xmlns="http://www.w3.org/2000/svg">
<path d="M17.9797 1.06367C19.8533 2.80424 21.3135 4.74132 22.3605 6.87491C23.3524 9.00851 23.8484 10.9175 23.8484 12.6019C23.4075 12.3212 22.7738 12.1808 21.9472 12.1808C20.3492 12.1808 19.0267 12.7704 17.9797 13.9495C16.8776 15.0724 16.3266 16.5322 16.3266 18.329C16.3266 20.238 16.9327 21.8101 18.145 23.0453C19.3573 24.2244 20.9003 24.814 22.7738 24.814C24.7576 24.814 26.3556 24.1683 27.5679 22.8769C28.7251 21.5855 29.3037 19.9853 29.3037 18.0763C29.3037 14.4829 28.6425 11.2263 27.3199 8.30666C25.9974 5.33086 24.2341 2.97268 22.0299 1.23211C21.3135 0.726784 20.5421 0.474121 19.7155 0.474121C18.944 0.474121 18.3654 0.670637 17.9797 1.06367ZM2.35753 1.06367C4.23109 2.80424 5.69137 4.74132 6.73835 6.87491C7.73024 9.00851 8.22618 10.9175 8.22618 12.6019C7.84045 12.3212 7.20674 12.1808 6.32507 12.1808C4.72703 12.1808 3.40452 12.7704 2.35753 13.9495C1.25544 15.0724 0.704393 16.5322 0.704393 18.329C0.704393 20.238 1.3381 21.8101 2.6055 23.0453C3.81781 24.2244 5.33319 24.814 7.15164 24.814C9.13541 24.814 10.7334 24.1683 11.9457 22.8769C13.158 21.5855 13.7642 19.9853 13.7642 18.0763C13.7642 14.4829 13.1029 11.2263 11.7804 8.30666C10.4028 5.33086 8.61191 2.97268 6.40773 1.23211C5.69137 0.726784 4.9199 0.474121 4.09333 0.474121C3.32187 0.474121 2.74327 0.670637 2.35753 1.06367Z" fill="#73A4E0" fill-opacity="0.1"/>
</svg>
