<svg width="47" height="47" viewBox="0 0 47 47" fill="none" xmlns="http://www.w3.org/2000/svg">
    <rect width="47" height="47" rx="23.5" fill="#73A4E0" />
    <path d="M19.7317 14.175C17.5569 15.3696 15.7183 16.3821 15.6478 16.425C15.5773 16.4679 15.4743 16.5804 15.4201 16.6768C15.317 16.8429 15.3116 16.9768 15.3116 20.8714V24.8893L14.8669 25.0661C12.9741 25.8161 11.6725 26.8768 11.1464 28.0875C11.0108 28.3929 11 28.4786 11 29.1429C11 29.8018 11.0163 29.8929 11.1464 30.1982C12.1118 32.4482 15.7889 34.0929 20.9628 34.5911C21.8359 34.6768 21.9173 34.6929 21.8685 34.7732C21.8414 34.8268 21.8197 34.9982 21.8197 35.1536C21.8197 35.6732 22.1505 36 22.6766 36C22.8338 36 23.0291 35.9679 23.1104 35.925C23.284 35.8339 24.7103 34.4143 24.7971 34.2482C24.8296 34.1839 24.8568 34.0071 24.8568 33.8571C24.8568 33.7071 24.8296 33.5304 24.7971 33.4661C24.7103 33.3 23.284 31.8804 23.1104 31.7893C22.8935 31.6768 22.4271 31.6929 22.2101 31.8214C21.9444 31.9821 21.8197 32.2232 21.8197 32.5875V32.9036L21.4563 32.8661C17.6708 32.5071 14.6337 31.5268 13.3266 30.2357C12.5782 29.4911 12.5728 28.7946 13.3266 28.0554C13.8147 27.5679 14.715 27.0321 15.6153 26.6839L15.8919 26.5768L19.7913 28.7196C23.604 30.8089 23.6962 30.8571 23.989 30.8571C24.2819 30.8571 24.3741 30.8089 28.1867 28.7196L32.0861 26.5768L32.3627 26.6839C33.263 27.0321 34.1633 27.5679 34.6514 28.0554C35.5246 28.9125 35.389 29.7268 34.2338 30.5893C32.8183 31.6393 30.2856 32.4482 27.3244 32.7857C26.6844 32.8607 26.4675 32.9464 26.2885 33.2089C26.1909 33.3536 26.1584 33.4714 26.1584 33.7018C26.1584 34.0821 26.3048 34.3179 26.6573 34.4893L26.9122 34.6179L27.6607 34.5268C31.7228 34.0393 34.9334 32.775 36.2513 31.1357C36.837 30.4125 37.0377 29.8179 36.9943 28.9446C36.9509 28.1143 36.6418 27.4982 35.9205 26.7911C35.2642 26.1429 34.2392 25.5161 33.1166 25.0661L32.6664 24.8893V20.8714C32.6664 16.9714 32.661 16.8429 32.558 16.6768C32.5037 16.5804 32.3627 16.4464 32.2488 16.3768C32.135 16.3071 30.2964 15.2946 28.165 14.1268C24.3795 12.0482 24.2765 12 23.989 12C23.6962 12 23.5985 12.0536 19.7317 14.175ZM26.9665 15.5089C28.5772 16.3929 29.9005 17.1268 29.9005 17.1429C29.9005 17.1589 28.5664 17.8982 26.9448 18.7875L23.989 20.4107L21.0333 18.7875C19.4117 17.8982 18.0775 17.1589 18.0775 17.1429C18.0775 17.1054 23.9511 13.8804 23.9999 13.8911C24.0161 13.8964 25.3557 14.625 26.9665 15.5089ZM20.3174 20.4321L23.1213 21.975V25.2429V28.5107L22.8935 28.3768C22.7633 28.3071 21.3966 27.5571 19.8564 26.7107L17.0471 25.1679V21.9V18.6321L17.2803 18.7661C17.405 18.8357 18.7717 19.5857 20.3174 20.4321ZM30.931 21.9054V25.1679L28.1271 26.7107C26.5814 27.5571 25.2147 28.3071 25.09 28.3768L24.8568 28.5107V25.2429V21.975L27.883 20.3089C29.5426 19.3982 30.9093 18.6482 30.9201 18.6429C30.9255 18.6429 30.931 20.1107 30.931 21.9054Z" fill="white" />
</svg>
