<svg width="47" height="47" viewBox="0 0 47 47" fill="none" xmlns="http://www.w3.org/2000/svg">
    <rect width="47" height="47" rx="23.5" fill="#73A4E0" />
    <path d="M28.9512 28.2125H12.4512L14.9512 14.2125H31.4512L28.9512 28.2125Z" stroke="white" stroke-width="2" stroke-linecap="round" stroke-linejoin="round" />
    <path d="M34.9512 28.2125H28.9512L30.4512 19.7124H33.2012C33.697 19.7097 34.1864 19.8247 34.6293 20.0478C35.0721 20.271 35.4556 20.596 35.7484 20.9962C36.0413 21.3963 36.235 21.8602 36.3137 22.3498C36.3924 22.8394 36.3538 23.3407 36.2012 23.8125L34.9512 28.2125Z" stroke="white" stroke-width="2" stroke-linecap="round" stroke-linejoin="round" />
    <path d="M17.1562 32.6375C17.8217 32.6375 18.3612 32.098 18.3612 31.4325C18.3612 30.767 17.8217 30.2275 17.1562 30.2275C16.4907 30.2275 15.9512 30.767 15.9512 31.4325C15.9512 32.098 16.4907 32.6375 17.1562 32.6375Z" stroke="white" stroke-width="2" stroke-linecap="round" stroke-linejoin="round" />
    <path d="M27.5009 32.6375C28.1664 32.6375 28.7059 32.098 28.7059 31.4325C28.7059 30.767 28.1664 30.2275 27.5009 30.2275C26.8354 30.2275 26.2959 30.767 26.2959 31.4325C26.2959 32.098 26.8354 32.6375 27.5009 32.6375Z" stroke="white" stroke-width="2" stroke-linecap="round" stroke-linejoin="round" />
    <path d="M11.4512 19.7125H18.9512" stroke="white" stroke-width="2" stroke-linecap="round" stroke-linejoin="round" />
</svg>
