<svg width="24" height="24" viewBox="0 0 24 24" fill="none" xmlns="http://www.w3.org/2000/svg">
<path d="M2 8C2 8 6.477 3 12 3C17.523 3 22 8 22 8" stroke="#3F566B" stroke-width="1.5" stroke-linecap="round" stroke-linejoin="round"/>
<path d="M21.544 13.045C21.848 13.471 22 13.685 22 14C22 14.316 21.848 14.529 21.544 14.955C20.178 16.871 16.689 21 12 21C7.31 21 3.822 16.87 2.456 14.955C2.152 14.529 2 14.315 2 14C2 13.684 2.152 13.471 2.456 13.045C3.822 11.129 7.311 7 12 7C16.69 7 20.178 11.13 21.544 13.045Z" stroke="#3F566B" stroke-width="1.5" stroke-linecap="round" stroke-linejoin="round"/>
<path d="M15 14C15 13.2044 14.6839 12.4413 14.1213 11.8787C13.5587 11.3161 12.7956 11 12 11C11.2044 11 10.4413 11.3161 9.87868 11.8787C9.31607 12.4413 9 13.2044 9 14C9 14.7956 9.31607 15.5587 9.87868 16.1213C10.4413 16.6839 11.2044 17 12 17C12.7956 17 13.5587 16.6839 14.1213 16.1213C14.6839 15.5587 15 14.7956 15 14Z" stroke="#3F566B" stroke-width="1.5" stroke-linecap="round" stroke-linejoin="round"/>
</svg>
