<svg width="59" height="59" viewBox="0 0 59 59" fill="none" xmlns="http://www.w3.org/2000/svg">
<rect width="59" height="59" rx="29.5" fill="#112D49"/>
<g clip-path="url(#clip0_525_9294)">
<path d="M28.7536 13.8352C28.5419 14.0593 28.5045 14.271 28.5045 15.1427C28.5045 17.1101 28.1683 17.4339 25.9394 17.5459C24.5697 17.6082 24.3829 17.6456 23.9222 17.9444C21.9298 19.2768 22.0917 22.1657 24.2335 23.2241C24.6693 23.4358 25.1176 23.4607 29.3513 23.5229L34.0084 23.5852L34.245 23.8841C34.5563 24.2576 34.5438 24.7806 34.2325 25.1168C33.9088 25.4655 33.722 25.5028 31.9787 25.5402C30.6214 25.5775 30.4969 25.6024 29.9241 25.9511C29.0151 26.5239 28.6042 27.271 28.5294 28.5038L28.4796 29.4875L24.221 29.5249L19.9749 29.5622L18.9164 29.9482C18.3312 30.1475 17.5342 30.5335 17.1482 30.795C16.0898 31.4923 14.9068 32.8247 14.3839 33.8831C13.699 35.2902 13.5247 36.1494 13.5869 37.9051C13.6367 39.2126 13.699 39.5239 14.0352 40.3955C14.9691 42.7614 17.0611 44.6168 19.4892 45.2394C20.3858 45.476 22.3283 45.5009 23.2996 45.3017C24.4825 45.0651 25.9394 44.2681 26.9231 43.3218C27.4212 42.8611 27.9566 42.2509 28.131 41.9645L28.4423 41.4664H29.5007H30.5591L30.8704 41.9645C31.4308 42.886 32.8752 44.1312 34.0084 44.6791C35.3283 45.3141 36.2373 45.476 37.9308 45.4137C38.9768 45.3764 39.4873 45.2892 40.2095 45.0277C42.4633 44.2308 44.3436 42.3132 45.0783 40.0593C45.3398 39.2873 45.3771 38.9013 45.3771 37.4693C45.3771 36.0373 45.3398 35.6637 45.0907 34.9664C44.2814 32.613 42.4633 30.795 40.085 29.9482L39.0266 29.5622L34.7679 29.5249L30.4969 29.4875V28.9272C30.4969 28.3295 30.6588 27.9185 30.9825 27.6695C31.107 27.5699 31.6798 27.5201 32.5639 27.5076C34.6559 27.5076 35.54 27.0967 36.1501 25.8639C36.9595 24.2452 36.1377 22.1657 34.494 21.6676C34.1702 21.5804 32.5639 21.5306 29.6501 21.5306H25.2919L24.9059 21.2069C24.4327 20.8084 24.3953 20.2729 24.8063 19.862C25.0678 19.613 25.2421 19.5632 26.4873 19.5134C28.5294 19.4138 29.4011 18.9281 30.1607 17.4961C30.3724 17.0852 30.4346 16.7116 30.472 15.5785C30.5218 14.2461 30.5093 14.1465 30.2354 13.8601C29.8618 13.4616 29.1147 13.4492 28.7536 13.8352ZM38.6032 31.6168C40.7325 32.0277 42.6999 33.8333 43.2603 35.9003C43.4222 36.4856 43.4595 37.0086 43.4222 37.8678C43.3848 38.9013 43.3225 39.1503 42.9116 39.9971C42.3015 41.3045 41.3053 42.3007 39.9978 42.9109C39.1511 43.3218 38.902 43.384 37.8685 43.4214C37.0093 43.4588 36.4863 43.4214 35.9011 43.2595C34.5065 42.886 33.0496 41.7404 32.2775 40.3955C32.0783 40.0469 31.7794 39.6982 31.6051 39.6235C31.1942 39.4118 27.8072 39.4118 27.3963 39.6235C27.222 39.6982 26.9231 40.0469 26.7239 40.3955C25.9768 41.6906 24.7191 42.7116 23.2747 43.1973C22.6022 43.4214 22.2536 43.4588 21.2201 43.4214C20.0869 43.384 19.8877 43.3342 19.0036 42.9233C17.6961 42.3007 16.6999 41.3045 16.0898 39.9971C15.6789 39.1503 15.6166 38.9013 15.5793 37.8678C15.517 36.4233 15.766 35.4023 16.426 34.3812C17.3226 32.999 18.8542 31.9157 20.2986 31.6293C21.0955 31.4674 37.7814 31.4674 38.6032 31.6168Z" fill="white"/>
<path d="M37.0093 34.1322C36.424 34.4186 36.3493 35.4147 36.8847 35.7883C37.8934 36.4981 39.0265 35.1532 38.1549 34.294C37.8436 33.9703 37.4575 33.908 37.0093 34.1322Z" fill="white"/>
<path d="M20.8456 34.7921C20.5966 35.0412 20.5343 35.2155 20.5343 35.7634V36.4482L19.7872 36.4981C18.8657 36.5603 18.542 36.8218 18.542 37.4942C18.542 38.2164 18.8657 38.4655 19.7872 38.4655H20.5343V39.2126C20.5343 40.1092 20.7958 40.4578 21.4558 40.4578C22.1531 40.4578 22.4395 40.1216 22.5018 39.2251L22.5516 38.4655H23.2364C24.27 38.4655 24.7556 37.8678 24.382 37.0584C24.2077 36.6599 23.7719 36.4732 23.087 36.4732H22.5267V35.9128C22.5267 35.2279 22.3399 34.7921 21.9414 34.6178C21.4807 34.4061 21.1694 34.4559 20.8456 34.7921Z" fill="white"/>
<path d="M34.5311 36.6101C33.9459 36.9089 33.8338 37.6934 34.2946 38.1541C34.9172 38.7892 35.9756 38.3783 35.9756 37.5066C35.9756 36.772 35.1786 36.2863 34.5311 36.6101Z" fill="white"/>
<path d="M39.3248 36.8342C39.001 37.1704 38.9512 37.295 39.0135 37.6312C39.1131 38.1417 39.4991 38.4655 40.0345 38.4655C40.6073 38.4655 40.956 38.1043 40.956 37.4942C40.956 36.9338 40.6945 36.635 40.1092 36.5229C39.7855 36.4607 39.661 36.5105 39.3248 36.8342Z" fill="white"/>
<path d="M37.1329 39.0881C36.1367 39.499 36.4106 40.9559 37.494 40.9559C38.1041 40.9559 38.4652 40.6073 38.4652 40.0345C38.4652 39.2998 37.7928 38.8142 37.1329 39.0881Z" fill="white"/>
</g>
<defs>
<clipPath id="clip0_525_9294">
<rect width="31.8774" height="31.8774" fill="white" transform="translate(13.5615 13.5613)"/>
</clipPath>
</defs>
</svg>
