<svg width="59" height="59" viewBox="0 0 59 59" fill="none" xmlns="http://www.w3.org/2000/svg">
<rect width="59" height="59" rx="29.5" fill="#112D49"/>
<path d="M21.6453 16.7499C21.5391 16.8124 21.4141 16.9249 21.3828 16.9937C21.3453 17.0624 21.3141 17.4499 21.3141 17.8624V18.6062L20.7328 18.6374C20.0516 18.6749 19.7016 18.8062 19.2891 19.1874C18.8578 19.5874 18.6766 20.0062 18.6391 20.7249L18.6078 21.3124H17.8328C17.0578 21.3124 17.0516 21.3124 16.8766 21.4937C16.6703 21.6999 16.5953 21.9249 16.6516 22.1624C16.6766 22.2562 16.7766 22.4062 16.8766 22.5062C17.0516 22.6874 17.0578 22.6874 17.8391 22.6874H18.6266V23.3437V23.9999H17.8516C17.1078 23.9999 17.0641 24.0062 16.8828 24.1624C16.6453 24.3624 16.5828 24.6499 16.7141 24.9624C16.8516 25.2937 17.0953 25.3749 17.9391 25.3749H18.6266V25.9999V26.6249H17.9078C17.0641 26.6249 16.8578 26.6999 16.7078 27.0437C16.5828 27.3499 16.6453 27.6437 16.8828 27.8374C17.0641 27.9937 17.1078 27.9999 17.8516 27.9999H18.6266V28.6562V29.3124H17.8391C17.0578 29.3124 17.0516 29.3124 16.8766 29.4937C16.5516 29.8124 16.5516 30.1874 16.8766 30.5062C17.0516 30.6874 17.0578 30.6874 17.8391 30.6874H18.6266V31.3437V31.9999H17.8516C17.1078 31.9999 17.0641 32.0062 16.8828 32.1624C16.6453 32.3624 16.5828 32.6499 16.7141 32.9624C16.8516 33.2937 17.0953 33.3749 17.9391 33.3749H18.6266V33.9999V34.6249H17.9078C17.0641 34.6249 16.8578 34.6999 16.7078 35.0437C16.5828 35.3499 16.6453 35.6437 16.8828 35.8374C17.0641 35.9937 17.1078 35.9999 17.8516 35.9999H18.6266V36.6562V37.3124H17.8391C17.0578 37.3124 17.0516 37.3124 16.8766 37.4937C16.5516 37.8124 16.5516 38.1874 16.8766 38.5062C17.0516 38.6874 17.0578 38.6874 17.8328 38.6874H18.6078L18.6391 39.2687C18.6766 39.9499 18.8078 40.2999 19.1891 40.7124C19.5891 41.1437 20.0078 41.3249 20.7266 41.3624L21.3141 41.3937V42.1687C21.3141 42.9437 21.3141 42.9499 21.4953 43.1249C21.8141 43.4499 22.1891 43.4499 22.5078 43.1249C22.6891 42.9499 22.6891 42.9437 22.6891 42.1624V41.3749H23.3453H24.0016V42.1499C24.0016 42.8937 24.0078 42.9374 24.1641 43.1187C24.3641 43.3562 24.6516 43.4187 24.9641 43.2874C25.2953 43.1499 25.3766 42.9062 25.3766 42.0624V41.3749H26.0016H26.6266V42.0624C26.6266 42.9062 26.7078 43.1499 27.0391 43.2874C27.3516 43.4187 27.6391 43.3562 27.8391 43.1187C27.9953 42.9374 28.0016 42.8937 28.0016 42.1499V41.3749H28.6578H29.3141V42.1624C29.3141 42.9437 29.3141 42.9499 29.4953 43.1249C29.8141 43.4499 30.1891 43.4499 30.5078 43.1249C30.6891 42.9499 30.6891 42.9437 30.6891 42.1624V41.3749H31.3453H32.0016V42.1499C32.0016 42.8937 32.0078 42.9374 32.1641 43.1187C32.3641 43.3562 32.6516 43.4187 32.9641 43.2874C33.2953 43.1499 33.3766 42.9062 33.3766 42.0624V41.3749H34.0016H34.6266V42.0624C34.6266 42.9062 34.7078 43.1499 35.0391 43.2874C35.3516 43.4187 35.6391 43.3562 35.8391 43.1187C35.9953 42.9374 36.0016 42.8937 36.0016 42.1499V41.3749H36.6578H37.3141V42.1624C37.3141 42.9437 37.3141 42.9499 37.4953 43.1249C37.8141 43.4499 38.1891 43.4499 38.5078 43.1249C38.6891 42.9499 38.6891 42.9437 38.6891 42.1687V41.3937L39.2766 41.3624C39.9953 41.3249 40.4141 41.1437 40.8141 40.7124C41.1953 40.2999 41.3266 39.9499 41.3641 39.2687L41.3953 38.6874H42.1578C42.8203 38.6874 42.9453 38.6687 43.0766 38.5624C43.4391 38.2812 43.4578 37.7562 43.1203 37.4749C42.9391 37.3187 42.8953 37.3124 42.1516 37.3124H41.3766V36.6562V35.9999H42.1516C42.8953 35.9999 42.9391 35.9937 43.1203 35.8374C43.3578 35.6374 43.4203 35.3499 43.2891 35.0374C43.1516 34.7062 42.9078 34.6249 42.0641 34.6249H41.3766V33.9999V33.3749H42.0641C42.9078 33.3749 43.1516 33.2937 43.2891 32.9624C43.4203 32.6499 43.3578 32.3624 43.1203 32.1624C42.9391 32.0062 42.8953 31.9999 42.1516 31.9999H41.3766V31.3437V30.6874H42.1516C42.8203 30.6874 42.9453 30.6687 43.0766 30.5624C43.4391 30.2812 43.4578 29.7562 43.1203 29.4749C42.9391 29.3187 42.8953 29.3124 42.1516 29.3124H41.3766V28.6562V27.9999H42.1516C42.8953 27.9999 42.9391 27.9937 43.1203 27.8374C43.3578 27.6374 43.4203 27.3499 43.2891 27.0374C43.1516 26.7062 42.9078 26.6249 42.0641 26.6249H41.3766V25.9999V25.3749H42.0641C42.9078 25.3749 43.1516 25.2937 43.2891 24.9624C43.4203 24.6499 43.3578 24.3624 43.1203 24.1624C42.9391 24.0062 42.8953 23.9999 42.1516 23.9999H41.3766V23.3437V22.6874H42.1516C42.8203 22.6874 42.9453 22.6687 43.0766 22.5624C43.4391 22.2812 43.4578 21.7562 43.1203 21.4749C42.9391 21.3187 42.8953 21.3124 42.1641 21.3124H41.3953L41.3641 20.7312C41.3266 20.0499 41.1953 19.6999 40.8141 19.2874C40.4141 18.8562 39.9953 18.6749 39.2766 18.6374L38.6891 18.6062V17.8312C38.6891 17.0562 38.6891 17.0499 38.5078 16.8749C38.1891 16.5499 37.8141 16.5499 37.4953 16.8749C37.3141 17.0499 37.3141 17.0562 37.3141 17.8374V18.6249H36.6578H36.0016V17.8499C36.0016 17.1062 35.9953 17.0624 35.8391 16.8812C35.6453 16.6437 35.3516 16.5812 35.0453 16.7062C34.7016 16.8562 34.6266 17.0624 34.6266 17.9062V18.6249H34.0016H33.3766V17.9062C33.3766 17.0624 33.3016 16.8562 32.9578 16.7062C32.6516 16.5812 32.3578 16.6437 32.1641 16.8812C32.0078 17.0624 32.0016 17.1062 32.0016 17.8499V18.6249H31.3453H30.6891V17.8374C30.6891 17.0562 30.6891 17.0499 30.5078 16.8749C30.1891 16.5499 29.8141 16.5499 29.4953 16.8749C29.3141 17.0499 29.3141 17.0562 29.3141 17.8374V18.6249H28.6578H28.0016V17.8499C28.0016 17.1062 27.9953 17.0624 27.8391 16.8812C27.6453 16.6437 27.3516 16.5812 27.0453 16.7062C26.7016 16.8562 26.6266 17.0624 26.6266 17.9062V18.6249H26.0016H25.3766V17.9062C25.3766 17.0624 25.3016 16.8562 24.9578 16.7062C24.6516 16.5812 24.3578 16.6437 24.1641 16.8812C24.0078 17.0624 24.0016 17.1062 24.0016 17.8499V18.6249H23.3453H22.6891V17.8562C22.6891 17.0187 22.6453 16.8937 22.3141 16.7187C22.0703 16.5937 21.8828 16.5999 21.6453 16.7499ZM39.4953 20.0812C39.6141 20.1249 39.7703 20.2374 39.8391 20.3312L39.9703 20.5062V29.9999V39.4937L39.8391 39.6687C39.7703 39.7624 39.6141 39.8749 39.4953 39.9187C39.1891 40.0249 20.8141 40.0249 20.5078 39.9187C20.3891 39.8749 20.2328 39.7624 20.1641 39.6687L20.0328 39.4937V29.9999V20.5062L20.1641 20.3312C20.2328 20.2374 20.3891 20.1249 20.5078 20.0812C20.8141 19.9749 39.1891 19.9749 39.4953 20.0812Z" fill="white"/>
<path d="M21.526 21.5249L21.3135 21.7374V29.9999V38.2624L21.526 38.4749L21.7385 38.6874H30.001H38.2635L38.476 38.4749L38.6885 38.2624V29.9999V21.7374L38.476 21.5249L38.2635 21.3124H30.001H21.7385L21.526 21.5249ZM37.3135 29.9999V37.3124H30.001H22.6885V29.9999V22.6874H30.001H37.3135V29.9999Z" fill="white"/>
<path d="M24.501 27.3812C24.226 27.4937 23.9385 27.7499 23.7947 28.0187C23.6635 28.2749 23.6572 28.3374 23.6572 29.9999C23.6572 31.7187 23.6572 31.7187 23.8135 31.9999C23.901 32.1499 24.0885 32.3624 24.2385 32.4687L24.5135 32.6562L25.8822 32.6749L27.2572 32.6937L27.4697 32.4812L27.6885 32.2624V31.1562V30.0499L27.5072 29.8749C27.1885 29.5499 26.8135 29.5499 26.4947 29.8749C26.3197 30.0499 26.3135 30.0749 26.3135 30.6812V31.3124H25.6572H25.001V29.9999V28.6874H26.1322H27.2635L27.476 28.4749C27.651 28.2999 27.6885 28.2124 27.6885 27.9999C27.6885 27.7874 27.651 27.6999 27.476 27.5249L27.2635 27.3124L25.9635 27.3187C25.2447 27.3187 24.5885 27.3499 24.501 27.3812Z" fill="white"/>
<path d="M28.526 27.5249L28.3135 27.7374V29.9999V32.2624L28.526 32.4749C28.701 32.6499 28.7885 32.6874 29.001 32.6874C29.2135 32.6874 29.301 32.6499 29.476 32.4749L29.6885 32.2624V31.4749V30.6874H30.476H31.2635L31.476 30.4749L31.6885 30.2624V28.9999V27.7374L31.476 27.5249L31.2635 27.3124H30.001H28.7385L28.526 27.5249ZM30.3135 28.9999V29.3124H30.001H29.6885V28.9999V28.6874H30.001H30.3135V28.9999Z" fill="white"/>
<path d="M32.526 27.5249L32.3135 27.7374V29.6937C32.3135 31.8937 32.326 31.9687 32.7697 32.3562C33.1135 32.6562 33.3447 32.6999 34.4822 32.6749L35.4885 32.6562L35.7635 32.4687C35.9135 32.3624 36.101 32.1499 36.1885 31.9999L36.3447 31.7187V29.6999V27.6749L36.1385 27.4937C35.851 27.2374 35.4447 27.2374 35.1822 27.4937L35.001 27.6749V29.4937V31.3124H34.3447H33.6885V29.5249V27.7374L33.476 27.5249C33.301 27.3499 33.2135 27.3124 33.001 27.3124C32.7885 27.3124 32.701 27.3499 32.526 27.5249Z" fill="white"/>
</svg>
