<svg width="33" height="32" viewBox="0 0 33 32" fill="none" xmlns="http://www.w3.org/2000/svg">
<rect x="0.353516" width="32" height="32" rx="16" fill="#73A4E0" fill-opacity="0.12"/>
<path d="M23.379 9.69932C22.4591 9.14181 21.3692 8.90678 20.2917 9.03351C19.2141 9.16025 18.2142 9.64106 17.459 10.3956L16.356 11.4463H16.3302L15.2401 10.3956C14.4849 9.64106 13.485 9.16025 12.4075 9.03351C11.3299 8.90678 10.2401 9.14181 9.32011 9.69932C8.78247 10.0362 8.32924 10.4849 7.99337 11.0127C7.6575 11.5404 7.44745 12.134 7.37853 12.7503C7.30961 13.3665 7.38354 13.9898 7.59493 14.5749C7.80633 15.16 8.14988 15.6921 8.60058 16.1325L16.3 24L16.4551 23.8499L16.5025 23.8958L24.1115 16.1325C24.5616 15.6913 24.9043 15.1584 25.1146 14.5728C25.325 13.9872 25.3978 13.3635 25.3276 12.7472C25.2574 12.131 25.0461 11.5376 24.709 11.0103C24.3719 10.4831 23.9176 10.0352 23.379 9.69932V9.69932Z" stroke="#73A4E0" stroke-width="2" stroke-linecap="round" stroke-linejoin="round"/>
</svg>
