<svg width="33" height="32" viewBox="0 0 33 32" fill="none" xmlns="http://www.w3.org/2000/svg">
  <rect x="0.353516" width="32" height="32" rx="16" fill="#73A4E0" fill-opacity="0.12"></rect>
  <path d="M16.3 24L8.60058 16.1325C8.14988 15.6921 7.80633 15.16 7.59493 14.5749C7.38354 13.9898 7.30961 13.3665 7.37853 12.7503C7.44745 12.134 7.6575 11.5404 7.99337 11.0127C8.32924 10.4849 8.78247 10.0362 9.32011 9.69932C10.2401 9.14181 11.3299 8.90678 12.4075 9.03351C13.485 9.16025 14.4849 9.64106 15.2401 10.3956L16.3302 11.4463H16.356L17.459 10.3956C18.2142 9.64106 19.2141 9.16025 20.2917 9.03351C21.3692 8.90678 22.4591 9.14181 23.379 9.69932C23.9176 10.0352 24.3719 10.4831 24.709 11.0103C25.0461 11.5376 25.2574 12.131 25.3276 12.7472C25.3978 13.3635 25.325 13.9872 25.1146 14.5728C24.9043 15.1584 24.5616 15.6913 24.1115 16.1325L16.5025 23.8958L16.4551 23.8499L16.3 24Z" fill="#73A4E0"></path>
</svg>
