 <svg
    width="20"
    height="20"
    viewBox="0 0 20 20"
    fill="none"
    xmlns="http://www.w3.org/2000/svg"
  >
    <path
      d="M6.91906 0.4296C3.62783 1.54951 1.25291 3.99464 0.299203 7.26104C0.112201 7.87699 0 8.97823 0 9.98615C0 12.8233 0.916308 15.0631 2.89853 17.0602C6.78816 20.9799 13.221 20.9799 17.1106 17.0602C18.3262 15.8283 19.2425 14.3165 19.71 12.7113C20.084 11.4047 20.1027 8.81025 19.7287 7.37303C18.8498 3.99464 16.0073 1.15754 12.6226 0.280279C10.9583 -0.149019 8.39637 -0.074358 6.91906 0.4296ZM11.6128 1.30686C16.1382 2.14679 19.4482 6.73842 18.7563 11.2181C18.1579 15.0071 15.2032 17.9935 11.3884 18.6841C5.70355 19.692 0.374003 14.4658 1.27161 8.71692C2.03832 3.80799 6.76946 0.410934 11.6128 1.30686Z"
      fill="#C9CFD2"
    />
    <path
      d="M9.72361 4.66669C9.51791 4.87201 9.34961 5.20798 9.34961 5.41329C9.34961 5.61861 9.51791 5.95458 9.72361 6.1599C9.92931 6.36522 10.2659 6.5332 10.4716 6.5332C10.6773 6.5332 11.0139 6.36522 11.2196 6.1599C11.4253 5.95458 11.5936 5.61861 11.5936 5.41329C11.5936 5.20798 11.4253 4.87201 11.2196 4.66669C11.0139 4.46137 10.6773 4.29339 10.4716 4.29339C10.2659 4.29339 9.92931 4.46137 9.72361 4.66669Z"
      fill="#C9CFD2"
    />
    <path
      d="M9.4617 7.89549C8.7511 8.11947 8.13399 8.41811 8.07789 8.54877C8.04049 8.67942 8.11529 8.73542 8.26489 8.67942C8.39579 8.62343 8.6202 8.66076 8.7698 8.75408C9.0129 8.90341 8.9942 9.27671 8.7324 11.5165C8.33969 14.7269 8.33969 14.9882 8.7511 15.3615C9.1999 15.7722 9.6861 15.7535 10.4154 15.3242C11.0512 14.9322 12.0984 13.327 11.874 13.1031C11.7992 13.0284 11.687 13.0844 11.6496 13.2151C11.4813 13.6817 10.6959 14.4656 10.5463 14.3163C10.4154 14.2043 10.8829 9.46336 11.1634 7.97015C11.2943 7.3542 11.1821 7.3542 9.4617 7.89549Z"
      fill="#C9CFD2"
    />
  </svg>