<svg width="32" height="32" viewBox="0 0 32 32" fill="none" xmlns="http://www.w3.org/2000/svg">
<rect x="0.5" y="0.499512" width="31" height="31" rx="15.5" stroke="white"/>
<path d="M12.8657 8.53809H19.1332C21.5208 8.53809 23.4608 10.478 23.4608 12.8657V19.1332C23.4608 20.2809 23.0048 21.3817 22.1933 22.1933C21.3817 23.0048 20.2809 23.4608 19.1332 23.4608H12.8657C10.478 23.4608 8.53809 21.5208 8.53809 19.1332V12.8657C8.53809 11.7179 8.99403 10.6172 9.8056 9.8056C10.6172 8.99403 11.7179 8.53809 12.8657 8.53809ZM12.7164 10.0304C12.004 10.0304 11.3208 10.3134 10.8171 10.8171C10.3134 11.3208 10.0304 12.004 10.0304 12.7164V19.2824C10.0304 20.7672 11.2316 21.9685 12.7164 21.9685H19.2824C19.9948 21.9685 20.678 21.6855 21.1818 21.1818C21.6855 20.678 21.9685 19.9948 21.9685 19.2824V12.7164C21.9685 11.2316 20.7672 10.0304 19.2824 10.0304H12.7164ZM19.9166 11.1496C20.164 11.1496 20.4012 11.2478 20.5761 11.4227C20.751 11.5976 20.8493 11.8349 20.8493 12.0822C20.8493 12.3296 20.751 12.5668 20.5761 12.7417C20.4012 12.9166 20.164 13.0149 19.9166 13.0149C19.6693 13.0149 19.432 12.9166 19.2571 12.7417C19.0822 12.5668 18.984 12.3296 18.984 12.0822C18.984 11.8349 19.0822 11.5976 19.2571 11.4227C19.432 11.2478 19.6693 11.1496 19.9166 11.1496ZM15.9994 12.2688C16.9889 12.2688 17.9378 12.6618 18.6374 13.3614C19.3371 14.0611 19.7301 15.01 19.7301 15.9994C19.7301 16.9889 19.3371 17.9378 18.6374 18.6374C17.9378 19.3371 16.9889 19.7301 15.9994 19.7301C15.01 19.7301 14.0611 19.3371 13.3614 18.6374C12.6618 17.9378 12.2688 16.9889 12.2688 15.9994C12.2688 15.01 12.6618 14.0611 13.3614 13.3614C14.0611 12.6618 15.01 12.2688 15.9994 12.2688ZM15.9994 13.761C15.4058 13.761 14.8364 13.9969 14.4166 14.4166C13.9969 14.8364 13.761 15.4058 13.761 15.9994C13.761 16.5931 13.9969 17.1624 14.4166 17.5822C14.8364 18.002 15.4058 18.2378 15.9994 18.2378C16.5931 18.2378 17.1624 18.002 17.5822 17.5822C18.002 17.1624 18.2378 16.5931 18.2378 15.9994C18.2378 15.4058 18.002 14.8364 17.5822 14.4166C17.1624 13.9969 16.5931 13.761 15.9994 13.761Z" fill="white"/>
</svg>
