<svg width="59" height="59" viewBox="0 0 59 59" fill="none" xmlns="http://www.w3.org/2000/svg">
<rect width="59" height="59" rx="29.5" fill="#112D49"/>
<path d="M16.8706 16.6704C16.6188 16.8089 16.2537 17.1488 16.0523 17.4384L15.7123 17.9672L15.6745 26.5035C15.6494 32.5343 15.6871 35.2034 15.7879 35.5812C15.9641 36.2359 16.6944 36.9787 17.3491 37.1675C17.6386 37.2431 18.9732 37.306 20.547 37.306C22.637 37.306 23.2162 37.3438 23.1658 37.4571C21.6172 41.5868 21.5543 41.8386 22.0327 42.3674C22.2215 42.5814 22.7378 42.594 29.4988 42.594C36.2598 42.594 36.776 42.5814 36.9649 42.3674C37.4433 41.8386 37.3804 41.5868 35.8318 37.4571C35.7814 37.3438 36.3605 37.306 38.4506 37.306C40.0244 37.306 41.3589 37.2431 41.6485 37.1675C42.3032 36.9787 43.0335 36.2359 43.2097 35.5812C43.3104 35.2034 43.3482 32.5343 43.323 26.5035L43.2853 17.9672L42.9327 17.4384C42.7439 17.1488 42.3662 16.7963 42.0892 16.6578C41.5982 16.406 41.3967 16.406 29.4736 16.406C17.6386 16.4186 17.3365 16.4186 16.8706 16.6704ZM40.9686 18.5464C41.1953 18.6723 41.2078 18.8611 41.2078 23.5825V28.4928H29.4988H17.7897V23.5825C17.7897 19.05 17.8023 18.6723 18.0164 18.559C18.3185 18.3827 40.6287 18.3701 40.9686 18.5464ZM40.9686 30.6331C41.1953 30.759 41.2078 30.9227 41.2078 32.8113C41.2078 34.2466 41.1575 34.9139 41.0568 35.0146C40.8427 35.2286 18.1549 35.2286 17.9408 35.0146C17.8401 34.9139 17.7897 34.2466 17.7897 32.8113C17.7897 30.9983 17.8149 30.759 18.0164 30.6457C18.3185 30.4695 40.6287 30.4569 40.9686 30.6331ZM34.0313 38.8421C34.3461 39.6856 34.6231 40.4159 34.6357 40.4788C34.6608 40.5292 32.3442 40.5795 29.4988 40.5795C26.6534 40.5795 24.3367 40.5292 24.3619 40.4788C24.3871 40.4159 24.6515 39.6856 24.9663 38.8421L25.5328 37.306H29.4988H33.4648L34.0313 38.8421Z" fill="white"/>
<path d="M27.2705 20.8378C27.0691 21.0644 26.3389 21.9457 25.6716 22.7767C24.5888 24.1365 24.4629 24.3631 24.4629 24.8163C24.4629 25.2192 24.5384 25.3829 24.7902 25.5843C25.1554 25.8739 25.596 25.9243 25.9863 25.7102C26.1248 25.6473 26.918 24.7282 27.7364 23.6958C29.3605 21.6687 29.4739 21.3917 28.9828 20.7622C28.7814 20.4978 28.6177 20.4349 28.1896 20.4349C27.749 20.4349 27.5979 20.5104 27.2705 20.8378Z" fill="white"/>
<path d="M31.6769 21.8576C31.5258 21.9457 30.8837 22.6886 30.2668 23.5195C29.0203 25.1689 28.8944 25.534 29.3854 26.1509C29.6121 26.4405 29.7254 26.4909 30.229 26.4531C30.7956 26.4153 30.8459 26.3776 31.551 25.471C32.7093 23.9728 33.2759 23.0789 33.2759 22.7389C33.2759 22.3486 32.6338 21.6939 32.2434 21.6939C32.0798 21.7065 31.828 21.7695 31.6769 21.8576Z" fill="white"/>
<path d="M28.706 31.653C28.3912 31.8418 28.1143 32.4462 28.1143 32.9624C28.1143 33.4912 28.6179 34.0955 29.1719 34.234C29.9776 34.4354 30.8841 33.7556 30.8841 32.9624C30.8841 32.421 30.6072 31.8292 30.2672 31.6404C29.9525 31.4767 28.9956 31.4767 28.706 31.653Z" fill="white"/>
</svg>
