 <svg
    width="71"
    height="19"
    viewBox="0 0 71 19"
    fill="none"
    xmlns="http://www.w3.org/2000/svg"
  >
    <path
      d="M12.0183 0.955041C11.1284 0.343256 9.96708 0.0366211 8.53446 0.0366211H2.98812C2.54894 0.0366211 2.3063 0.256265 2.26021 0.695026L0.00707223 14.8379C-0.0163439 14.9768 0.0184093 15.1039 0.111014 15.2194C0.203089 15.3352 0.318898 15.3927 0.457594 15.3927H3.09207C3.55414 15.3927 3.80811 15.1736 3.85473 14.7341L4.4786 10.9213C4.50138 10.7365 4.58264 10.5863 4.72134 10.4706C4.85993 10.3551 5.03327 10.2794 5.24126 10.2449C5.44925 10.2106 5.64538 10.1933 5.83059 10.1933C6.01527 10.1933 6.2347 10.2049 6.48931 10.2279C6.74328 10.251 6.90518 10.2623 6.97458 10.2623C8.96188 10.2623 10.5218 9.70228 11.6543 8.58117C12.7863 7.46048 13.353 5.90644 13.353 3.91872C13.353 2.55528 12.9078 1.56736 12.0183 0.954616V0.955041ZM9.15854 5.20173C9.04262 6.01069 8.74255 6.54196 8.25728 6.79625C7.7719 7.05086 7.07863 7.17737 6.17748 7.17737L5.03348 7.21212L5.62291 3.50295C5.6689 3.24897 5.81904 3.12183 6.07344 3.12183H6.73226C7.65619 3.12183 8.32679 3.25501 8.74277 3.52032C9.15854 3.78627 9.29723 4.34699 9.15854 5.20173Z"
      fill="#003087"
    />
    <path
      d="M70.5488 0.0361328H67.9838C67.729 0.0361328 67.579 0.163281 67.5332 0.417467L65.2799 14.838L65.2451 14.9073C65.2451 15.0234 65.2914 15.1326 65.384 15.2367C65.476 15.3404 65.592 15.3925 65.7306 15.3925H68.0187C68.4572 15.3925 68.6999 15.1734 68.7467 14.734L70.9999 0.556162V0.521727C70.9997 0.198245 70.849 0.0364513 70.5488 0.0364513V0.0361328Z"
      fill="#009CDE"
    />
    <path
      d="M39.5591 5.6176C39.5591 5.50232 39.5127 5.39234 39.4207 5.2885C39.328 5.18456 39.224 5.13232 39.1087 5.13232H36.4396C36.1849 5.13232 35.977 5.24845 35.8155 5.4789L32.1411 10.8869L30.616 5.68711C30.4998 5.31753 30.2459 5.13232 29.8533 5.13232H27.2532C27.1373 5.13232 27.0333 5.18445 26.9414 5.2885C26.8487 5.39234 26.8027 5.50243 26.8027 5.6176C26.8027 5.66422 27.0281 6.34562 27.4786 7.66285C27.9291 8.9803 28.4145 10.4016 28.9346 11.9269C29.4546 13.452 29.7258 14.2612 29.7491 14.3531C27.854 16.9416 26.9068 18.3283 26.9068 18.5129C26.9068 18.8136 27.0569 18.9636 27.3574 18.9636H30.0265C30.2807 18.9636 30.4886 18.8483 30.6506 18.617L39.4901 5.86002C39.536 5.81415 39.5591 5.73362 39.5591 5.61749V5.6176Z"
      fill="#003087"
    />
    <path
      d="M64.4142 5.13239H61.7797C61.4559 5.13239 61.2601 5.51372 61.1907 6.27639C60.5892 5.35246 59.4921 4.88965 57.8972 4.88965C56.2333 4.88965 54.8177 5.51372 53.6509 6.76167C52.4837 8.00971 51.9004 9.47741 51.9004 11.1642C51.9004 12.528 52.2989 13.614 53.0961 14.4225C53.8933 15.2319 54.9621 15.6358 56.3029 15.6358C56.9729 15.6358 57.6546 15.4969 58.3479 15.2199C59.0412 14.9426 59.5838 14.573 59.9774 14.1106C59.9774 14.1338 59.9538 14.2376 59.9081 14.4223C59.8615 14.6075 59.8387 14.7466 59.8387 14.8383C59.8387 15.2085 59.9885 15.3929 60.2894 15.3929H62.6814C63.1199 15.3929 63.3745 15.1738 63.4436 14.7343L64.865 5.68686C64.8878 5.54816 64.8532 5.42123 64.761 5.30552C64.6682 5.19035 64.5529 5.13239 64.4142 5.13239ZM59.8906 11.9614C59.3013 12.5392 58.5906 12.828 57.7588 12.828C57.0883 12.828 56.5457 12.6435 56.1295 12.2735C55.7133 11.9044 55.5053 11.3959 55.5053 10.7481C55.5053 9.8937 55.7943 9.17109 56.3721 8.58177C56.9492 7.99244 57.6663 7.69778 58.5213 7.69778C59.1679 7.69778 59.7053 7.8885 60.1331 8.26962C60.5603 8.65096 60.7747 9.17692 60.7747 9.84708C60.7746 10.6789 60.4798 11.384 59.8906 11.9614Z"
      fill="#009CDE"
    />
    <path
      d="M25.0355 5.13239H22.4011C22.0771 5.13239 21.881 5.51372 21.8116 6.27639C21.1877 5.35246 20.0899 4.88965 18.5184 4.88965C16.8545 4.88965 15.4389 5.51372 14.272 6.76167C13.1048 8.00971 12.5215 9.47741 12.5215 11.1642C12.5215 12.528 12.9202 13.614 13.7175 14.4225C14.5148 15.2319 15.5834 15.6358 16.9239 15.6358C17.5707 15.6358 18.2413 15.4969 18.9344 15.2199C19.6277 14.9426 20.1824 14.573 20.5983 14.1106C20.5056 14.3878 20.4597 14.6305 20.4597 14.8383C20.4597 15.2085 20.6098 15.3929 20.9103 15.3929H23.3021C23.7409 15.3929 23.9954 15.1738 24.0648 14.7343L25.486 5.68686C25.5087 5.54816 25.4741 5.42123 25.382 5.30552C25.2895 5.19035 25.1741 5.13239 25.0355 5.13239ZM20.5118 11.9786C19.9224 12.5456 19.1998 12.828 18.3453 12.828C17.6747 12.828 17.1374 12.6435 16.7333 12.2735C16.3287 11.9044 16.1266 11.3959 16.1266 10.7481C16.1266 9.8937 16.4153 9.17109 16.9933 8.58177C17.5707 7.99244 18.2871 7.69778 19.1425 7.69778C19.7893 7.69778 20.3266 7.8885 20.7545 8.26973C21.1817 8.65106 21.3958 9.17702 21.3958 9.84719C21.3958 10.7021 21.1011 11.413 20.5118 11.9786Z"
      fill="#003087"
    />
    <path
      d="M51.3973 0.955041C50.5075 0.343256 49.3464 0.0366211 47.9136 0.0366211H42.4018C41.9394 0.0366211 41.685 0.256265 41.6392 0.695026L39.386 14.8379C39.3626 14.9769 39.3972 15.104 39.4899 15.2195C39.5816 15.3352 39.6978 15.3927 39.8365 15.3927H42.6789C42.9562 15.3927 43.1409 15.2427 43.2335 14.9422L43.8576 10.9213C43.8805 10.7365 43.9615 10.5863 44.1003 10.4706C44.239 10.3551 44.4121 10.2795 44.6203 10.2449C44.8282 10.2106 45.0242 10.1933 45.2096 10.1933C45.3943 10.1933 45.6137 10.2049 45.868 10.2279C46.1222 10.251 46.2845 10.2623 46.3533 10.2623C48.341 10.2623 49.9006 9.70228 51.0331 8.58117C52.1656 7.46048 52.7317 5.90644 52.7317 3.91872C52.7319 2.55539 52.2868 1.56746 51.3973 0.954723V0.955041ZM47.8442 6.65755C47.3357 7.00413 46.573 7.17737 45.5564 7.17737L44.447 7.21212L45.0364 3.50295C45.0821 3.24897 45.2323 3.12183 45.4869 3.12183H46.1107C46.619 3.12183 47.0234 3.14492 47.3243 3.19101C47.6242 3.23763 47.9136 3.38163 48.1909 3.62427C48.4683 3.86701 48.6069 4.21952 48.6069 4.6817C48.6069 5.65225 48.3523 6.31076 47.8442 6.65755Z"
      fill="#009CDE"
    />
  </svg>