<svg width="47" height="47" viewBox="0 0 47 47" fill="none" xmlns="http://www.w3.org/2000/svg">
<rect width="47" height="47" rx="23.5" fill="#73A4E0"/>
<path d="M19.8473 10.6737C19.1373 10.8637 18.5323 11.4137 17.7723 12.5587C17.5023 12.9637 17.1823 13.3837 17.0623 13.4887C16.8323 13.6887 16.6573 13.7537 15.3423 14.1437C14.1973 14.4837 13.5523 14.9387 13.2023 15.6537C12.9273 16.2137 12.8823 16.5537 12.9023 17.9187L12.9173 19.1187L12.7823 19.3937C12.7073 19.5437 12.4323 19.9387 12.1673 20.2687C11.3223 21.3187 11.0473 21.8787 11.0073 22.6187C10.9523 23.5487 11.1923 24.0937 12.2023 25.3637C12.4473 25.6687 12.7073 26.0437 12.7823 26.1937L12.9173 26.4687L12.9023 27.6687C12.8823 29.0337 12.9273 29.3737 13.2023 29.9337C13.5473 30.6337 14.2173 31.1087 15.3423 31.4437C16.7673 31.8637 16.8173 31.8837 17.0573 32.0987C17.1873 32.2087 17.5073 32.6287 17.7773 33.0337C18.5423 34.1937 19.1373 34.7287 19.8673 34.9187C20.5473 35.0937 21.2273 34.9937 22.4373 34.5437C23.3273 34.2137 23.6073 34.1587 23.9873 34.2337C24.1473 34.2687 24.5823 34.4087 24.9473 34.5437C26.1573 34.9937 26.8373 35.0937 27.5173 34.9187C28.2473 34.7287 28.8423 34.1887 29.6173 33.0287C29.8873 32.6237 30.2073 32.1987 30.3323 32.0887C30.5623 31.8887 30.6273 31.8637 32.0423 31.4437C33.1723 31.1087 33.8373 30.6387 34.1823 29.9337C34.4573 29.3737 34.5023 29.0337 34.4823 27.6687L34.4673 26.4687L34.6023 26.1937C34.6773 26.0437 34.9623 25.6387 35.2373 25.2937C35.7723 24.6237 36.1023 24.0937 36.2623 23.6487C36.4073 23.2487 36.4073 22.3387 36.2623 21.9387C36.1023 21.4937 35.7723 20.9637 35.2373 20.2937C34.9623 19.9487 34.6773 19.5437 34.6023 19.3937L34.4673 19.1187L34.4823 17.9187C34.4973 16.9937 34.4823 16.6337 34.4223 16.3587C34.1873 15.2237 33.4873 14.5737 32.0423 14.1437C30.6173 13.7237 30.5673 13.7037 30.3273 13.4937C30.1973 13.3787 29.8823 12.9637 29.6123 12.5537C29.0723 11.7387 28.4873 11.1087 28.0623 10.8837C27.7023 10.6887 27.2823 10.5937 26.8123 10.5937C26.3273 10.5937 25.9123 10.6937 24.9673 11.0387C24.0373 11.3787 23.7773 11.4287 23.3973 11.3537C23.2373 11.3187 22.8023 11.1787 22.4373 11.0437C22.0723 10.9087 21.5923 10.7487 21.3723 10.6937C20.9023 10.5737 20.2473 10.5637 19.8473 10.6737ZM21.7523 12.9837C22.6973 13.3287 23.1823 13.4437 23.6923 13.4437C24.2023 13.4437 24.6873 13.3287 25.6323 12.9837C26.1173 12.8087 26.5873 12.6737 26.7473 12.6587C27.0273 12.6287 27.0323 12.6337 27.2523 12.8487C27.3723 12.9687 27.6923 13.4037 27.9673 13.8187C28.2423 14.2287 28.6123 14.7137 28.7923 14.8937C29.3373 15.4387 29.5773 15.5487 31.5273 16.1387C32.0873 16.3087 32.3073 16.4587 32.3923 16.7137C32.4223 16.8137 32.4423 17.3237 32.4323 18.0987C32.4273 19.1037 32.4373 19.3787 32.5073 19.6587C32.6573 20.2587 32.8973 20.6737 33.6323 21.5937C34.1523 22.2487 34.3423 22.5637 34.3423 22.7937C34.3423 23.0237 34.1523 23.3387 33.6323 23.9937C33.1073 24.6487 32.9273 24.9137 32.7373 25.2937C32.4673 25.8437 32.4273 26.1337 32.4223 27.5787C32.4173 28.8137 32.4123 28.8937 32.3123 29.0287C32.1723 29.2237 31.8823 29.3487 31.0423 29.5937C30.0373 29.8787 29.6873 30.0187 29.2623 30.3037C28.8023 30.6137 28.5623 30.8837 27.9523 31.7937C27.6873 32.1937 27.3723 32.6187 27.2523 32.7387C27.0323 32.9537 27.0273 32.9587 26.7473 32.9287C26.5873 32.9137 26.1173 32.7787 25.6323 32.6037C23.9473 31.9887 23.4373 31.9887 21.7523 32.6037C21.2673 32.7787 20.7973 32.9137 20.6373 32.9287C20.3573 32.9587 20.3523 32.9537 20.1323 32.7387C20.0123 32.6187 19.6973 32.1937 19.4323 31.7937C18.8223 30.8837 18.5823 30.6137 18.1223 30.3037C17.6973 30.0187 17.3473 29.8787 16.3423 29.5937C15.5023 29.3487 15.2123 29.2237 15.0723 29.0287C14.9723 28.8937 14.9673 28.8137 14.9623 27.5787C14.9573 26.1237 14.9173 25.8387 14.6373 25.2787C14.4373 24.8837 14.2723 24.6487 13.7523 23.9937C13.2323 23.3387 13.0423 23.0237 13.0423 22.7887C13.0423 22.5637 13.2523 22.2087 13.7773 21.5637C14.2623 20.9587 14.4323 20.7087 14.6373 20.3087C14.9223 19.7387 14.9623 19.4637 14.9523 18.0987C14.9423 17.3237 14.9573 16.8187 14.9923 16.7137C15.0773 16.4587 15.2973 16.3087 15.8573 16.1387C17.3523 15.6837 17.6423 15.5787 17.9423 15.4087C18.4173 15.1287 18.8623 14.6537 19.4123 13.8187C19.6823 13.4137 20.0023 12.9837 20.1273 12.8587C20.3523 12.6337 20.3523 12.6287 20.6373 12.6587C20.7973 12.6737 21.2673 12.8087 21.7523 12.9837Z" fill="white"/>
<path d="M22.767 15.7987C19.757 16.2037 17.362 18.4637 16.757 21.4787C16.637 22.0887 16.637 23.4987 16.757 24.1087C17.337 26.9787 19.512 29.1537 22.377 29.7287C22.987 29.8487 24.397 29.8487 25.007 29.7287C26.432 29.4437 27.632 28.8037 28.647 27.7937C29.692 26.7537 30.337 25.5487 30.627 24.1087C30.747 23.4937 30.747 22.0837 30.627 21.4787C30.337 20.0337 29.702 18.8487 28.667 17.8187C27.662 16.8087 26.512 16.1787 25.152 15.8937C24.587 15.7737 23.317 15.7237 22.767 15.7987ZM24.892 17.9437C25.127 17.9987 25.562 18.1687 25.867 18.3187C26.907 18.8287 27.657 19.5787 28.172 20.6187C28.552 21.3987 28.662 21.8837 28.662 22.7937C28.662 23.7037 28.552 24.1887 28.172 24.9687C27.657 26.0087 26.907 26.7587 25.867 27.2737C25.087 27.6537 24.602 27.7637 23.692 27.7637C22.782 27.7637 22.297 27.6537 21.517 27.2737C20.477 26.7587 19.727 26.0087 19.212 24.9687C18.832 24.1887 18.722 23.7037 18.722 22.7937C18.722 21.8837 18.832 21.3987 19.212 20.6187C19.927 19.1687 21.237 18.1687 22.827 17.8687C23.357 17.7687 24.327 17.8037 24.892 17.9437Z" fill="white"/>
<path d="M25.567 20.3437C25.457 20.3587 25.312 20.4037 25.242 20.4387C25.172 20.4787 24.607 21.0137 23.982 21.6337L22.847 22.7637L22.557 22.4837C22.177 22.1237 21.997 22.0337 21.642 22.0337C21.032 22.0337 20.627 22.4387 20.627 23.0437C20.627 23.2087 20.662 23.3887 20.717 23.4937C20.832 23.7187 22.002 24.9137 22.287 25.0987C22.477 25.2237 22.562 25.2437 22.842 25.2437C23.122 25.2437 23.207 25.2237 23.397 25.0987C23.692 24.9037 26.557 22.0137 26.672 21.7937C26.842 21.4537 26.762 20.9287 26.497 20.6237C26.312 20.4137 25.917 20.2937 25.567 20.3437Z" fill="white"/>
</svg>
