<svg width="40" height="40" viewBox="0 0 40 40" fill="none" xmlns="http://www.w3.org/2000/svg">
<rect x="0.445652" y="0.445652" width="39.1087" height="39.1087" rx="19.5543" fill="white"/>
<rect x="0.445652" y="0.445652" width="39.1087" height="39.1087" rx="19.5543" stroke="#73A4E0" stroke-width="0.891304"/>
<path d="M33 35.6071C32.5054 36.0054 31.9919 36.3796 31.4593 36.7298C28.2037 38.8633 24.3944 40 20.5002 40C16.606 40 12.7968 38.8633 9.5411 36.7298C9.00855 36.3805 8.49485 36.0063 8 35.6071C8.15201 34.1765 8.69974 32.8163 9.58187 31.6788C10.464 30.5412 11.6458 29.6713 12.9949 29.1663L17.5137 27.4745V25.8179C17.1892 25.6133 16.8821 25.3826 16.5953 25.128C12.833 25.6815 10.6915 23.6838 10.6915 23.6838C10.6915 23.6838 12.1356 21.9625 12.1373 17.3407V14.3503C12.1373 9.82324 15.9404 6 20.5002 6C25.06 6 28.8631 9.82324 28.8631 14.3503V17.3407C28.8631 21.9612 30.3085 23.6838 30.3085 23.6838C30.3085 23.6838 28.1535 25.691 24.3913 25.138C24.1084 25.3879 23.8059 25.6149 23.4867 25.8166V27.4745L28.0056 29.1663C29.3546 29.6714 30.5362 30.5414 31.4182 31.6789C32.3003 32.8164 32.848 34.1765 33 35.6071Z" fill="#73A4E0"/>
</svg>
