<svg width="129" height="25" viewBox="0 0 129 25" fill="none" xmlns="http://www.w3.org/2000/svg">
<g clip-path="url(#clip0_128_268)">
<path d="M12.3538 17.5L6.47575 21.09L8.07375 14.39L2.84375 9.91L9.70875 9.36L12.3538 3L14.9988 9.36L21.8647 9.91L16.6338 14.39L18.2318 21.09L12.3538 17.5Z" fill="#FFD900"/>
</g>
<g clip-path="url(#clip1_128_268)">
<path d="M38.3538 17.5L32.4758 21.09L34.0737 14.39L28.8438 9.91L35.7087 9.36L38.3538 3L40.9988 9.36L47.8647 9.91L42.6338 14.39L44.2318 21.09L38.3538 17.5Z" fill="#FFD900"/>
</g>
<g clip-path="url(#clip2_128_268)">
<path d="M64.3538 17.5L58.4758 21.09L60.0737 14.39L54.8438 9.91L61.7087 9.36L64.3538 3L66.9988 9.36L73.8647 9.91L68.6338 14.39L70.2318 21.09L64.3538 17.5Z" fill="#FFD900"/>
</g>
<g clip-path="url(#clip3_128_268)">
<path d="M90.3538 17.5L84.4758 21.09L86.0737 14.39L80.8438 9.91L87.7087 9.36L90.3538 3L92.9988 9.36L99.8647 9.91L94.6338 14.39L96.2318 21.09L90.3538 17.5Z" fill="#FFD900"/>
</g>
<g clip-path="url(#clip4_128_268)">
<path d="M116.354 15.156L119.171 16.876L118.405 13.666L120.912 11.519L117.622 11.255L116.354 8.208V15.156ZM116.354 17.5L110.476 21.09L112.074 14.39L106.844 9.91L113.709 9.36L116.354 3L118.999 9.36L125.865 9.91L120.634 14.39L122.232 21.09L116.354 17.5Z" fill="#FFD900"/>
</g>
<defs>
<clipPath id="clip0_128_268">
<rect width="24" height="24" fill="white" transform="translate(0.353516 0.5)"/>
</clipPath>
<clipPath id="clip1_128_268">
<rect width="24" height="24" fill="white" transform="translate(26.3535 0.5)"/>
</clipPath>
<clipPath id="clip2_128_268">
<rect width="24" height="24" fill="white" transform="translate(52.3535 0.5)"/>
</clipPath>
<clipPath id="clip3_128_268">
<rect width="24" height="24" fill="white" transform="translate(78.3535 0.5)"/>
</clipPath>
<clipPath id="clip4_128_268">
<rect width="24" height="24" fill="white" transform="translate(104.354 0.5)"/>
</clipPath>
</defs>
</svg>
