<svg width="59" height="59" viewBox="0 0 59 59" fill="none" xmlns="http://www.w3.org/2000/svg">
<rect width="59" height="59" rx="29.5" fill="#112D49"/>
<path d="M26.7188 16.0371C25.7812 16.2012 24.9785 16.8223 24.6035 17.666C24.5391 17.8125 24.3926 18.4043 24.2812 18.9668C24.1758 19.5352 24.0527 20.0215 24.0117 20.0508C23.9707 20.0742 23.8711 20.0977 23.7891 20.0977C23.707 20.0977 23.4258 20.1738 23.1621 20.2676C21.6855 20.7832 20.584 21.9551 20.1445 23.4785L20.0098 23.9355V30V36.0645L20.1445 36.5215C20.584 38.0449 21.6855 39.2168 23.1621 39.7324C23.4258 39.8262 23.707 39.9023 23.7891 39.9023C23.8711 39.9023 23.9707 39.9258 24.0117 39.9492C24.0527 39.9785 24.1758 40.4648 24.2871 41.0508C24.5273 42.2754 24.6914 42.6797 25.1602 43.1484C25.5117 43.4941 25.8457 43.7051 26.3086 43.8633C26.6074 43.9687 26.8535 43.9746 30.0293 43.9746C33.3867 43.9746 33.4336 43.9746 33.7617 43.8457C34.4941 43.5645 35.0684 43.0488 35.373 42.3809C35.4551 42.2109 35.6016 41.6133 35.7129 41.0391C35.8242 40.4648 35.9473 39.9785 35.9883 39.9492C36.0293 39.9258 36.1289 39.9023 36.2109 39.9023C36.457 39.9023 37.3008 39.5801 37.7168 39.3281C38.7305 38.7246 39.5039 37.7227 39.8496 36.5508C39.9727 36.1523 39.9844 35.9766 40.0078 34.1133C40.0254 32.3027 40.0371 32.0977 40.125 32.0684C40.7285 31.8633 41.0859 31.6699 41.1621 31.5176C41.291 31.2773 41.291 28.7227 41.1621 28.4824C41.0859 28.3301 40.7285 28.1367 40.125 27.9316C40.0371 27.9023 40.0254 27.6973 40.0078 25.8867C39.9844 24.0234 39.9727 23.8477 39.8496 23.4492C39.5039 22.2773 38.7305 21.2754 37.7168 20.6719C37.3008 20.4199 36.457 20.0977 36.2109 20.0977C36.1289 20.0977 36.0293 20.0742 35.9941 20.0508C35.9531 20.0215 35.8242 19.5293 35.7129 18.9492C35.4785 17.748 35.3086 17.332 34.8691 16.8809C34.541 16.541 34.2012 16.3184 33.7559 16.1543C33.4395 16.0312 33.3398 16.0254 30.1465 16.0195C28.3418 16.0137 26.8008 16.0195 26.7188 16.0371ZM33.2578 17.8652C33.6562 18.0469 33.7969 18.293 33.9609 19.1074C34.0371 19.5 34.1016 19.8574 34.1016 19.9043C34.1016 19.9687 33.375 19.9805 30 19.9805C26.5781 19.9805 25.8984 19.9687 25.8984 19.8984C25.8984 19.7109 26.1445 18.5859 26.2324 18.3867C26.3438 18.123 26.502 17.9648 26.7773 17.8477C26.9531 17.7715 27.4336 17.7598 30 17.7598C32.8242 17.7539 33.0352 17.7656 33.2578 17.8652ZM36.0059 21.8262C37.0547 22.1016 37.8984 22.9453 38.1738 23.9941C38.3086 24.5156 38.3086 35.4844 38.1738 36.0059C37.8984 37.0547 37.0547 37.8984 36.0059 38.1738C35.4844 38.3086 24.5156 38.3086 23.9941 38.1738C22.9453 37.8984 22.1016 37.0547 21.8262 36.0059C21.6914 35.4844 21.6914 24.5156 21.8262 23.9941C22.0957 22.957 22.9395 22.1074 23.9707 21.832C24.457 21.6973 35.502 21.6973 36.0059 21.8262ZM34.1016 40.1016C34.1016 40.1426 34.0371 40.5059 33.9551 40.8984C33.791 41.7187 33.6562 41.9531 33.2578 42.1348C33.0352 42.2344 32.8242 42.2461 30 42.2461C27.1758 42.2461 26.9648 42.2344 26.7422 42.1348C26.3438 41.9531 26.2031 41.707 26.0391 40.8926C25.9629 40.5 25.8984 40.1426 25.8984 40.0957C25.8984 40.0312 26.625 40.0195 30 40.0195C33.4219 40.0195 34.1016 40.0312 34.1016 40.1016Z" fill="white"/>
<path d="M28.0789 25.664C27.9735 25.6875 27.8211 25.7695 27.7449 25.8398C27.6688 25.916 27.241 26.666 26.7957 27.5156L25.9871 29.0566L25.1082 29.0625C24.3758 29.0625 24.1883 29.0859 23.9832 29.1738C23.3445 29.4668 23.3563 30.4687 24.0008 30.7382C24.2762 30.8554 26.5848 30.8554 26.8543 30.7382C27.1297 30.6269 27.1824 30.5449 27.7801 29.4199C28.1317 28.7519 28.3309 28.4297 28.3602 28.4824C28.3836 28.5293 29.0399 29.789 29.8192 31.289C30.5985 32.789 31.3016 34.0722 31.3777 34.1425C31.6883 34.4179 32.1981 34.4297 32.532 34.166C32.6082 34.1074 33.036 33.3398 33.4871 32.4668L34.3074 30.8789H35.0692C35.7488 30.8789 35.8543 30.8613 36.0594 30.7441C36.657 30.4043 36.6336 29.5078 36.0125 29.2148C35.8485 29.1386 35.6082 29.1211 34.7293 29.1211C33.6043 29.1211 33.411 29.1504 33.1766 29.373C33.1063 29.4375 32.8016 29.9648 32.5086 30.539C32.2098 31.1074 31.9637 31.5703 31.9578 31.5644C31.9461 31.5586 31.3016 30.3222 30.5281 28.8281C29.7488 27.3281 29.075 26.0449 29.0281 25.9746C28.8699 25.7226 28.4246 25.582 28.0789 25.664Z" fill="white"/>
</svg>
