<svg width="168" height="32" viewBox="0 0 168 32" fill="none" xmlns="http://www.w3.org/2000/svg">
<g clip-path="url(#clip0_0_1)">
<path d="M16.1461 22.6148L8.32672 27.3906L10.4525 18.4776L3.49512 12.518L12.6275 11.7863L16.1461 3.32568L19.6647 11.7863L28.7985 12.518L21.8398 18.4776L23.9656 27.3906L16.1461 22.6148Z" fill="#FFD900"/>
</g>
<g clip-path="url(#clip1_0_1)">
<path d="M50.0729 22.6148L42.2535 27.3906L44.3793 18.4776L37.4219 12.518L46.5543 11.7863L50.0729 3.32568L53.5915 11.7863L62.7252 12.518L55.7665 18.4776L57.8923 27.3906L50.0729 22.6148Z" fill="#FFD900"/>
</g>
<g clip-path="url(#clip2_0_1)">
<path d="M83.9997 22.6148L76.1802 27.3906L78.306 18.4776L71.3486 12.518L80.481 11.7863L83.9997 3.32568L87.5183 11.7863L96.652 12.518L89.6933 18.4776L91.8191 27.3906L83.9997 22.6148Z" fill="#FFD900"/>
</g>
<g clip-path="url(#clip3_0_1)">
<path d="M117.927 22.6148L110.108 27.3906L112.234 18.4776L105.276 12.518L114.409 11.7863L117.927 3.32568L121.446 11.7863L130.58 12.518L123.621 18.4776L125.747 27.3906L117.927 22.6148Z" fill="#FFD900"/>
</g>
<g clip-path="url(#clip4_0_1)">
<path d="M151.854 19.4966L155.602 21.7847L154.583 17.5145L157.918 14.6584L153.541 14.3072L151.854 10.2538V19.4966ZM151.854 22.6148L144.035 27.3906L146.161 18.4776L139.203 12.518L148.336 11.7863L151.854 3.32568L155.373 11.7863L164.506 12.518L157.548 18.4776L159.674 27.3906L151.854 22.6148Z" fill="#FFD900"/>
</g>
<defs>
<clipPath id="clip0_0_1">
<rect width="31.9269" height="31.9269" fill="white" transform="translate(0.182617)"/>
</clipPath>
<clipPath id="clip1_0_1">
<rect width="31.9269" height="31.9269" fill="white" transform="translate(34.1094)"/>
</clipPath>
<clipPath id="clip2_0_1">
<rect width="31.9269" height="31.9269" fill="white" transform="translate(68.0361)"/>
</clipPath>
<clipPath id="clip3_0_1">
<rect width="31.9269" height="31.9269" fill="white" transform="translate(101.964)"/>
</clipPath>
<clipPath id="clip4_0_1">
<rect width="31.9269" height="31.9269" fill="white" transform="translate(135.891)"/>
</clipPath>
</defs>
</svg>
