<svg width="59" height="59" viewBox="0 0 59 59" fill="none" xmlns="http://www.w3.org/2000/svg">
<rect width="59" height="59" rx="29.5" fill="#112D49"/>
<g clip-path="url(#clip0_525_9306)">
<path d="M20.2209 16.1094C18.892 16.4594 17.7983 17.5477 17.4264 18.8984C17.3444 19.1937 17.2897 19.6586 17.2295 20.6703C17.1475 22.0484 16.8959 26.2594 16.3764 34.8945C16.2069 37.7383 16.1084 39.7453 16.1248 40.0625C16.1576 40.6695 16.2998 41.1727 16.6115 41.7742C16.8522 42.2336 17.41 42.8789 17.8475 43.2016C18.1756 43.4422 18.7772 43.743 19.1983 43.8687C19.5154 43.9672 19.9311 43.9727 29.999 43.9727C40.067 43.9727 40.4826 43.9672 40.7998 43.8687C41.2209 43.743 41.8225 43.4422 42.1506 43.2016C42.5881 42.8789 43.1459 42.2336 43.3865 41.7742C43.6983 41.1727 43.8404 40.6695 43.8733 40.0625C43.8897 39.7453 43.7912 37.7383 43.6217 34.8945C43.1022 26.2594 42.8506 22.0484 42.7686 20.6703C42.7084 19.6586 42.6537 19.1937 42.5717 18.8984C42.1944 17.5367 41.1006 16.4539 39.7553 16.1094C39.3451 16 39.11 16 29.9772 16.0055C20.9592 16.0055 20.6037 16.0109 20.2209 16.1094ZM38.9951 17.8047C39.4983 17.8758 39.9139 18.0836 40.2694 18.4445C40.6412 18.8109 40.8326 19.2266 40.8928 19.8008C40.9365 20.1617 41.8662 35.6711 41.8662 35.9719C41.8662 36.0484 41.8061 36.0375 41.4725 35.8789C41.2537 35.775 40.8764 35.6383 40.6412 35.5781C40.2147 35.4687 40.0561 35.4687 29.999 35.4687C19.942 35.4687 19.7834 35.4687 19.3569 35.5781C19.1217 35.6383 18.7444 35.775 18.5311 35.8789C18.192 36.0375 18.1319 36.0484 18.1319 35.9719C18.1319 35.6711 19.0615 20.1617 19.1053 19.8008C19.1654 19.2266 19.3569 18.8109 19.7287 18.4445C20.0733 18.1 20.5053 17.8758 20.9483 17.8102C21.4186 17.7445 38.5194 17.7391 38.9951 17.8047ZM40.4061 37.3992C41.91 37.9461 42.5498 39.7344 41.7022 41.0359C41.2756 41.6922 40.6467 42.0969 39.892 42.1953C39.3451 42.2664 20.6529 42.2664 20.1061 42.1953C19.1272 42.0695 18.3069 41.3805 18.017 40.4398C17.8912 40.0406 17.8858 39.6469 17.9951 39.2258C18.2303 38.3289 18.8264 37.6508 19.6248 37.3773C19.8928 37.2844 20.4233 37.2789 29.9826 37.2734H40.0561L40.4061 37.3992Z" fill="white"/>
<path d="M29.518 21.3047C29.4195 21.3649 29.2937 21.4907 29.2336 21.5891C29.1297 21.7641 29.1242 21.8735 29.1242 25.2805C29.1242 27.2165 29.1078 28.7969 29.0914 28.7969C29.0695 28.7969 28.8727 28.6329 28.6539 28.436L28.2492 28.0751V26.9704C28.2492 25.9094 28.2437 25.8493 28.1289 25.6797C27.9102 25.3626 27.7352 25.2696 27.3523 25.2696C27.0625 25.2696 26.9805 25.2915 26.8164 25.4172C26.4664 25.6852 26.4336 25.8493 26.4555 27.4352C26.4719 28.6547 26.4828 28.8462 26.5703 28.9774C26.6195 29.054 27.2156 29.5954 27.8883 30.1751L29.1133 31.2305L29.1187 31.9852C29.1242 32.8329 29.1625 32.9587 29.4852 33.2102C29.6547 33.336 29.7422 33.3633 30.0047 33.3633C30.3602 33.3633 30.5406 33.2649 30.7539 32.9532C30.8742 32.7782 30.8742 32.7454 30.8742 30.9899L30.8797 29.2071L32.1156 28.1407C33.0508 27.3368 33.3789 27.0251 33.45 26.8555C33.5375 26.6641 33.5539 26.4782 33.5539 25.2969C33.5539 24.0118 33.5484 23.9407 33.4336 23.711C33.2641 23.3829 33.0125 23.2188 32.668 23.2188C32.3125 23.2188 32.0227 23.3719 31.8695 23.6454C31.7547 23.8477 31.7492 23.9243 31.7492 24.9579V26.0516L31.3281 26.4235L30.9016 26.7899L30.8742 24.2524C30.8414 21.436 30.8578 21.5344 30.475 21.3047C30.2344 21.1571 29.7586 21.1571 29.518 21.3047Z" fill="white"/>
<path d="M32.5423 38.854C32.2798 38.9743 32.1649 39.0946 32.0501 39.368C31.8751 39.7891 32.0063 40.2485 32.3837 40.5329C32.6626 40.7462 33.111 40.7735 33.4173 40.5985C34.1118 40.1938 34.0954 39.2313 33.3899 38.8704C33.1001 38.7227 32.8376 38.7173 32.5423 38.854Z" fill="white"/>
<path d="M36.4085 38.8649C35.6976 39.2203 35.6976 40.2594 36.414 40.6039C37.0921 40.932 37.8194 40.4836 37.8194 39.7344C37.8194 38.9852 37.0866 38.5313 36.4085 38.8649Z" fill="white"/>
<path d="M21.6865 38.9797C21.3748 39.193 21.2764 39.3735 21.2764 39.7344C21.2764 40.0954 21.3748 40.2758 21.6865 40.4837C21.8615 40.604 21.9053 40.6094 23.2396 40.6094C24.6068 40.6094 24.6178 40.6094 24.8092 40.4782C25.3123 40.1337 25.3123 39.3352 24.8092 38.9907C24.6178 38.8594 24.6068 38.8594 23.2396 38.8594C21.9053 38.8594 21.8615 38.8649 21.6865 38.9797Z" fill="white"/>
</g>
<defs>
<clipPath id="clip0_525_9306">
<rect width="28" height="28" fill="white" transform="translate(16 16)"/>
</clipPath>
</defs>
</svg>
