<svg width="47" height="47" viewBox="0 0 47 47" fill="none" xmlns="http://www.w3.org/2000/svg">
<rect width="47" height="47" rx="23.5" fill="#73A4E0"/>
<path d="M23.3019 11.0852C19.156 11.653 15.6636 14.524 14.3084 18.4771C13.8906 19.6823 13.7139 20.7268 13.7139 22.0124C13.7139 22.9712 13.8264 24.0371 13.9496 24.2835C14.121 24.6049 14.5548 24.8138 14.9191 24.7495C15.1655 24.7013 15.5083 24.396 15.594 24.1442C15.6529 23.9621 15.6315 23.4372 15.5511 23.1211L15.5244 23.0033H16.4832C17.5598 23.0033 17.7205 22.9605 17.9026 22.623C18.0312 22.382 18.0312 21.9106 17.9026 21.6695C17.7205 21.3321 17.5598 21.2892 16.4885 21.2892H15.5351L15.5672 21.0321C15.5833 20.8929 15.6583 20.5072 15.7333 20.1697C16.5849 16.2595 19.7827 13.3295 23.7197 12.8582L23.9983 12.8207V13.7741C23.9983 14.8508 24.0411 15.0115 24.3786 15.1936C24.6196 15.3221 25.091 15.3221 25.332 15.1936C25.6695 15.0115 25.7123 14.8508 25.7123 13.7795V12.826L25.9694 12.8582C26.4515 12.9171 27.4425 13.1581 27.9781 13.3403C29.8422 13.9937 31.5348 15.3061 32.649 16.9773C33.4631 18.1878 33.972 19.5645 34.1434 21.0053L34.1809 21.2892H33.2328C32.1722 21.2892 32.0062 21.3321 31.8187 21.6374C31.6794 21.8677 31.6741 22.3712 31.808 22.623C31.9901 22.9605 32.1454 23.0033 33.2489 23.0033H34.2291V23.1961C34.2291 23.5282 33.9774 24.6692 33.7738 25.253C32.8311 27.9527 30.6563 30.1006 27.9353 31.0112C27.6996 31.0916 27.2282 31.2148 26.8908 31.2897C26.2158 31.429 26.0016 31.5522 25.8516 31.8575C25.6588 32.2753 25.8195 32.8271 26.1944 33.0252C26.5587 33.2234 27.2657 33.127 28.4977 32.7199C30.0189 32.2164 31.3795 31.3969 32.5365 30.2881C34.3791 28.5258 35.5629 26.2172 35.911 23.705C36.0182 22.939 36.0235 21.3428 35.9164 20.6036C35.5682 18.1504 34.4862 15.9703 32.7561 14.2455C30.9885 12.4725 28.7227 11.3744 26.1944 11.0584C25.5838 10.9834 23.9286 10.9995 23.3019 11.0852Z" fill="white"/>
<path d="M24.39 17.0897C24.2936 17.138 24.1651 17.2558 24.1062 17.3522C24.0044 17.5183 23.999 17.6147 23.999 19.9715C23.999 21.6535 24.0151 22.4569 24.0579 22.5373C24.1436 22.7033 26.8379 25.403 27.0094 25.4994C27.1968 25.5958 27.6575 25.5958 27.8557 25.494C28.2895 25.2691 28.4288 24.6102 28.1289 24.2031C28.0432 24.0906 27.4647 23.4907 26.8433 22.8694L25.7131 21.7445V19.6555C25.7131 17.3201 25.7131 17.304 25.3328 17.1005C25.1078 16.9773 24.6257 16.9719 24.39 17.0897Z" fill="white"/>
<path d="M12.391 26.5172C12.1286 26.6457 12 26.8921 12 27.2617C12 27.6153 12.1125 27.8831 12.3107 28.0224C12.4339 28.1081 12.616 28.1241 13.6337 28.1456C14.9407 28.183 15.0693 28.2098 15.2674 28.5366C15.4121 28.7669 15.4121 29.2276 15.2728 29.4525C15.1228 29.6936 14.9086 29.7953 14.4854 29.8328C13.3766 29.9346 12.6428 30.4113 12.225 31.2898L12.0268 31.7076L12.0107 33.0735C11.9893 35.1411 11.8018 35.0018 14.5711 35.0018C16.8208 35.0018 16.8422 34.9965 17.0458 34.6215C17.1743 34.3805 17.1743 33.9091 17.0458 33.6681C16.853 33.3092 16.7565 33.2878 15.1389 33.2878H13.698L13.7248 32.7253C13.773 31.8362 13.923 31.6755 14.8014 31.579C16.2477 31.4183 17.1422 30.4328 17.1422 29.0026C17.1422 28.242 16.9065 27.6367 16.4244 27.1493C16.1191 26.8493 15.7817 26.6511 15.3264 26.5172C14.9032 26.394 12.6428 26.394 12.391 26.5172Z" fill="white"/>
<path d="M19.2475 26.5172C19.1511 26.5654 19.0225 26.6832 18.9636 26.7797C18.8618 26.9457 18.8564 27.0421 18.8564 28.9812C18.8564 30.8452 18.8618 31.0273 18.9529 31.1934C19.1457 31.5523 19.2421 31.5737 20.849 31.5737H22.2846V33.0092C22.2846 34.2948 22.2953 34.4608 22.381 34.6215C22.5149 34.8733 22.7774 35.0018 23.1416 35.0018C23.5059 35.0018 23.7683 34.8733 23.9022 34.6215C23.9933 34.4501 23.9986 34.2198 23.9986 30.7167C23.9986 27.2135 23.9933 26.9832 23.9022 26.8118C23.7683 26.5654 23.5059 26.4315 23.1523 26.4315C22.7934 26.4315 22.531 26.5493 22.3917 26.7797C22.2899 26.9404 22.2846 27.0421 22.2846 28.408V29.8596H21.4275H20.5705V28.4241C20.5705 26.8172 20.5491 26.7207 20.1902 26.5279C19.9652 26.4047 19.4832 26.3994 19.2475 26.5172Z" fill="white"/>
</svg>
