<svg width="33" height="34" viewBox="0 0 33 34" fill="none" xmlns="http://www.w3.org/2000/svg">
<rect y="0.5" width="33" height="33" rx="16.5" fill="#F4F8F7"/>
<g opacity="0.5">
<path d="M12.5968 25.5166C12.1089 25.5166 11.6914 25.343 11.3443 24.9958C10.9971 24.6487 10.8232 24.2309 10.8226 23.7424V12.2101C10.5713 12.2101 10.3608 12.125 10.191 11.9546C10.0213 11.7843 9.93614 11.5738 9.93555 11.323C9.93496 11.0723 10.0201 10.8617 10.191 10.6914C10.3619 10.5211 10.5725 10.4359 10.8226 10.4359H14.371C14.371 10.1846 14.4562 9.97404 14.6265 9.80431C14.7968 9.63458 15.0074 9.54942 15.2581 9.54883H18.8065C19.0579 9.54883 19.2687 9.63399 19.439 9.80431C19.6093 9.97463 19.6942 10.1852 19.6936 10.4359H23.242C23.4933 10.4359 23.7042 10.5211 23.8745 10.6914C24.0448 10.8617 24.1297 11.0723 24.1291 11.323C24.1285 11.5738 24.0433 11.7846 23.8736 11.9555C23.7039 12.1264 23.4933 12.2113 23.242 12.2101V23.7424C23.242 24.2303 23.0684 24.6481 22.7213 24.9958C22.3741 25.3436 21.9563 25.5172 21.4678 25.5166H12.5968ZM21.4678 12.2101H12.5968V23.7424H21.4678V12.2101ZM15.2581 21.9682C15.5095 21.9682 15.7203 21.883 15.8906 21.7127C16.061 21.5424 16.1458 21.3318 16.1452 21.0811V14.8714C16.1452 14.6201 16.0601 14.4095 15.8897 14.2398C15.7194 14.0701 15.5089 13.9849 15.2581 13.9843C15.0074 13.9837 14.7968 14.0689 14.6265 14.2398C14.4562 14.4107 14.371 14.6212 14.371 14.8714V21.0811C14.371 21.3324 14.4562 21.5433 14.6265 21.7136C14.7968 21.8839 15.0074 21.9688 15.2581 21.9682ZM18.8065 21.9682C19.0579 21.9682 19.2687 21.883 19.439 21.7127C19.6093 21.5424 19.6942 21.3318 19.6936 21.0811V14.8714C19.6936 14.6201 19.6085 14.4095 19.4381 14.2398C19.2678 14.0701 19.0573 13.9849 18.8065 13.9843C18.5558 13.9837 18.3452 14.0689 18.1749 14.2398C18.0046 14.4107 17.9194 14.6212 17.9194 14.8714V21.0811C17.9194 21.3324 18.0046 21.5433 18.1749 21.7136C18.3452 21.8839 18.5558 21.9688 18.8065 21.9682Z" fill="#112D49"/>
</g>
</svg>
