<svg width="59" height="59" viewBox="0 0 59 59" fill="none" xmlns="http://www.w3.org/2000/svg">
<rect width="59" height="59" rx="29.5" fill="#112D49"/>
<path d="M14.4763 15.6147C13.9827 15.7827 13.4996 16.3078 13.4261 16.7699C13.3946 16.9379 13.3841 21.7898 13.3946 27.5343L13.4261 37.9836L13.6781 38.3407C14.1822 39.0338 14.4237 39.0863 17.8368 39.0863H20.8719L19.3281 40.6406C17.7108 42.2789 17.6268 42.4049 17.8999 43.0035C18.0469 43.3291 18.4144 43.5286 18.845 43.5181C19.1391 43.5076 19.4751 43.224 21.397 41.3022L23.6129 39.0863H30.1765H36.7402L38.9561 41.3022C40.8779 43.224 41.2139 43.5076 41.508 43.5181C41.9386 43.5286 42.3061 43.3291 42.4532 43.0035C42.7262 42.4049 42.6422 42.2789 41.0249 40.6406L39.4811 39.0863H42.5267C45.4777 39.0863 45.5827 39.0758 46.0343 38.8448C46.2863 38.7188 46.5909 38.4772 46.7064 38.3197C46.927 38.0256 46.927 37.9521 46.927 27.2927V16.5599L46.6854 16.2133C46.5489 16.0243 46.2863 15.7932 46.1078 15.6882C45.7928 15.5202 44.7636 15.5097 30.334 15.4887C17.2487 15.4677 14.8333 15.4887 14.4763 15.6147ZM44.9841 24.9613V32.4702H30.1765H15.3689V24.9613V17.4525H30.1765H44.9841V24.9613ZM44.9841 35.7782V37.091H30.1765H15.3689V35.7782V34.4655H30.1765H44.9841V35.7782Z" fill="white"/>
<path d="M23.5281 21.0231C22.9925 21.4432 23.0765 22.3464 23.6751 22.6509C23.8326 22.7349 24.1792 22.8084 24.4522 22.8084H24.9248V25.5809C24.9248 27.1142 24.9668 28.4794 25.0298 28.6265C25.2399 29.1831 26.1325 29.3196 26.5946 28.8575L26.8677 28.5845L26.8992 25.7069L26.9307 22.8294L27.5083 22.7874C28.4114 22.7139 28.8105 22.1678 28.5585 21.3592C28.4009 20.8866 28.0334 20.8131 25.8385 20.8131C23.9482 20.8131 23.7801 20.8341 23.5281 21.0231Z" fill="white"/>
<path d="M31.0057 21.1176C30.8062 21.3172 30.7012 21.5377 30.7012 21.7372C30.7012 22.2098 32.9486 28.5529 33.2111 28.8365C33.3476 28.973 33.5682 29.1095 33.7152 29.141C34.1038 29.2146 34.6604 29.036 34.8494 28.763C34.9334 28.6475 35.511 27.0197 36.1306 25.1608C37.1913 21.9788 37.2438 21.7688 37.1073 21.4537C36.9708 21.1176 36.5402 20.8131 36.1936 20.8131C36.0886 20.8131 35.8681 20.8971 35.6895 21.0021C35.406 21.1806 35.301 21.4222 34.6919 23.26C34.3243 24.3942 33.9882 25.2869 33.9462 25.2449C33.9042 25.2029 33.6102 24.3942 33.2741 23.4385C32.9486 22.4829 32.6125 21.5587 32.5285 21.3802C32.2344 20.7606 31.4993 20.6346 31.0057 21.1176Z" fill="white"/>
</svg>
