<svg width="26" height="26" viewBox="0 0 26 26" fill="none" xmlns="http://www.w3.org/2000/svg">
<path d="M4 23.2511C4.50108 21.2416 5.64889 19.4525 7.26668 18.1593C8.88446 16.8662 10.8825 16.1407 12.9531 16.0947C15.0237 16.0486 17.052 16.6846 18.7256 17.9045C20.3993 19.1245 21.6255 20.8608 22.2154 22.8461" stroke="white" stroke-width="2" stroke-linecap="round" stroke-linejoin="round"/>
<path d="M13.5621 12.1382H12.6483C11.5035 12.1382 10.4055 11.6834 9.59593 10.8738C8.78638 10.0643 8.33157 8.96627 8.33157 7.82139V7.42627C8.33157 6.18576 8.82436 4.99604 9.70153 4.11887C10.5787 3.24171 11.7684 2.74893 13.0089 2.74893C13.6493 2.74828 14.2835 2.87394 14.8752 3.1187C15.4669 3.36345 16.0046 3.7225 16.4574 4.17531C16.9102 4.62811 17.2693 5.16577 17.514 5.75751C17.7588 6.34925 17.8844 6.98345 17.8838 7.62381V7.82139C17.8838 8.96627 17.429 10.0643 16.6194 10.8738C15.8099 11.6834 14.7119 12.1382 13.567 12.1382H13.5621Z" stroke="white" stroke-width="2" stroke-linecap="round" stroke-linejoin="round"/>
</svg>
