<svg width="26" height="26" viewBox="0 0 26 26" fill="none" xmlns="http://www.w3.org/2000/svg">
<path d="M22.3674 3.93242C21.1407 3.18909 19.6876 2.8757 18.2509 3.04468C16.8142 3.21366 15.4809 3.85475 14.474 4.86078L13.0034 6.26167H12.9689L11.5154 4.86078C10.5086 3.85475 9.17532 3.21366 7.7386 3.04468C6.30187 2.8757 4.84874 3.18909 3.62212 3.93242C2.90527 4.38164 2.30096 4.97986 1.85314 5.68356C1.40531 6.38726 1.12525 7.17873 1.03336 8.00035C0.941459 8.82198 1.04003 9.65309 1.32189 10.4332C1.60375 11.2133 2.06182 11.9228 2.66275 12.5101L12.9287 23L13.1355 22.7999L13.1987 22.861L23.344 12.5101C23.9441 11.9217 24.401 11.2112 24.6815 10.4304C24.962 9.64954 25.059 8.81799 24.9654 7.9963C24.8719 7.1746 24.5901 6.38345 24.1407 5.68044C23.6912 4.97742 23.0854 4.38026 22.3674 3.93242V3.93242Z" stroke="white" stroke-width="2" stroke-linecap="round" stroke-linejoin="round"/>
</svg>
